<svg xmlns="http://www.w3.org/2000/svg" xmlns:xlink="http://www.w3.org/1999/xlink" width="500" zoomAndPan="magnify" viewBox="0 0 375 374.999991" height="500" preserveAspectRatio="xMidYMid meet" version="1.0"><defs><g/><clipPath id="73c1b673a3"><path d="M 97 50 L 261 50 L 261 217 L 97 217 Z M 97 50 " clip-rule="nonzero"/></clipPath><clipPath id="9e5afb380d"><path d="M 140.574219 8.824219 L 297.796875 93.34375 L 215.402344 246.601562 L 58.183594 162.078125 Z M 140.574219 8.824219 " clip-rule="nonzero"/></clipPath><clipPath id="2b8a35fb5d"><path d="M 140.574219 8.824219 L 297.796875 93.34375 L 215.402344 246.601562 L 58.183594 162.078125 Z M 140.574219 8.824219 " clip-rule="nonzero"/></clipPath><clipPath id="a3ab8c0a4b"><path d="M 207 219 L 221 219 L 221 233 L 207 233 Z M 207 219 " clip-rule="nonzero"/></clipPath><clipPath id="74b1704488"><path d="M 140.574219 8.824219 L 297.796875 93.34375 L 215.402344 246.601562 L 58.183594 162.078125 Z M 140.574219 8.824219 " clip-rule="nonzero"/></clipPath><clipPath id="d23b7f49d3"><path d="M 140.574219 8.824219 L 297.796875 93.34375 L 215.402344 246.601562 L 58.183594 162.078125 Z M 140.574219 8.824219 " clip-rule="nonzero"/></clipPath><clipPath id="8b9eecf008"><path d="M 260 106 L 273 106 L 273 118 L 260 118 Z M 260 106 " clip-rule="nonzero"/></clipPath><clipPath id="28d976dafd"><path d="M 140.574219 8.824219 L 297.796875 93.34375 L 215.402344 246.601562 L 58.183594 162.078125 Z M 140.574219 8.824219 " clip-rule="nonzero"/></clipPath><clipPath id="d34274c6e7"><path d="M 140.574219 8.824219 L 297.796875 93.34375 L 215.402344 246.601562 L 58.183594 162.078125 Z M 140.574219 8.824219 " clip-rule="nonzero"/></clipPath><clipPath id="f45aab17b0"><path d="M 250 159 L 260 159 L 260 169 L 250 169 Z M 250 159 " clip-rule="nonzero"/></clipPath><clipPath id="d25b24bc2f"><path d="M 140.574219 8.824219 L 297.796875 93.34375 L 215.402344 246.601562 L 58.183594 162.078125 Z M 140.574219 8.824219 " clip-rule="nonzero"/></clipPath><clipPath id="187311f7aa"><path d="M 140.574219 8.824219 L 297.796875 93.34375 L 215.402344 246.601562 L 58.183594 162.078125 Z M 140.574219 8.824219 " clip-rule="nonzero"/></clipPath><clipPath id="874a0b4c43"><path d="M 129 177 L 137 177 L 137 186 L 129 186 Z M 129 177 " clip-rule="nonzero"/></clipPath><clipPath id="d38e92397c"><path d="M 140.574219 8.824219 L 297.796875 93.34375 L 215.402344 246.601562 L 58.183594 162.078125 Z M 140.574219 8.824219 " clip-rule="nonzero"/></clipPath><clipPath id="5ab001fb24"><path d="M 140.574219 8.824219 L 297.796875 93.34375 L 215.402344 246.601562 L 58.183594 162.078125 Z M 140.574219 8.824219 " clip-rule="nonzero"/></clipPath><clipPath id="667e4bf7ac"><path d="M 103 118 L 115 118 L 115 130 L 103 130 Z M 103 118 " clip-rule="nonzero"/></clipPath><clipPath id="3038e119fc"><path d="M 140.574219 8.824219 L 297.796875 93.34375 L 215.402344 246.601562 L 58.183594 162.078125 Z M 140.574219 8.824219 " clip-rule="nonzero"/></clipPath><clipPath id="4b0319e7b7"><path d="M 140.574219 8.824219 L 297.796875 93.34375 L 215.402344 246.601562 L 58.183594 162.078125 Z M 140.574219 8.824219 " clip-rule="nonzero"/></clipPath><clipPath id="5eb5532e78"><path d="M 156 45 L 171 45 L 171 60 L 156 60 Z M 156 45 " clip-rule="nonzero"/></clipPath><clipPath id="0732441f60"><path d="M 140.574219 8.824219 L 297.796875 93.34375 L 215.402344 246.601562 L 58.183594 162.078125 Z M 140.574219 8.824219 " clip-rule="nonzero"/></clipPath><clipPath id="58cffb85db"><path d="M 140.574219 8.824219 L 297.796875 93.34375 L 215.402344 246.601562 L 58.183594 162.078125 Z M 140.574219 8.824219 " clip-rule="nonzero"/></clipPath><clipPath id="b94cd2e85d"><path d="M 139 91 L 237 91 L 237 184 L 139 184 Z M 139 91 " clip-rule="nonzero"/></clipPath><clipPath id="3e774061d3"><path d="M 151.699219 81.609375 L 245 104.207031 L 223.285156 193.863281 L 129.980469 171.265625 Z M 151.699219 81.609375 " clip-rule="nonzero"/></clipPath><clipPath id="1d6f3c953f"><path d="M 151.699219 81.609375 L 245 104.207031 L 223.285156 193.863281 L 129.980469 171.265625 Z M 151.699219 81.609375 " clip-rule="nonzero"/></clipPath><clipPath id="bcc59111ce"><path d="M 134 87 L 241 87 L 241 189 L 134 189 Z M 134 87 " clip-rule="nonzero"/></clipPath><clipPath id="fd27695e1d"><path d="M 151.699219 81.609375 L 245 104.207031 L 223.285156 193.863281 L 129.980469 171.265625 Z M 151.699219 81.609375 " clip-rule="nonzero"/></clipPath><clipPath id="19b5e1accd"><path d="M 151.699219 81.609375 L 245 104.207031 L 223.285156 193.863281 L 129.980469 171.265625 Z M 151.699219 81.609375 " clip-rule="nonzero"/></clipPath><clipPath id="a33140b4a0"><path d="M 248 278 L 316 278 L 316 326 L 248 326 Z M 248 278 " clip-rule="nonzero"/></clipPath><clipPath id="5dd50441b2"><path d="M 261.730469 236.820312 L 328.113281 300.875 L 264.054688 367.257812 L 197.671875 303.199219 Z M 261.730469 236.820312 " clip-rule="nonzero"/></clipPath><clipPath id="2f9c0147cf"><path d="M 261.730469 236.820312 L 328.113281 300.875 L 264.054688 367.257812 L 197.671875 303.199219 Z M 261.730469 236.820312 " clip-rule="nonzero"/></clipPath><clipPath id="8d336d60c1"><path d="M 210 278 L 278 278 L 278 326 L 210 326 Z M 210 278 " clip-rule="nonzero"/></clipPath><clipPath id="9fafb3a95a"><path d="M 261.730469 236.820312 L 328.113281 300.875 L 264.054688 367.257812 L 197.671875 303.199219 Z M 261.730469 236.820312 " clip-rule="nonzero"/></clipPath><clipPath id="eb3d3dc6f8"><path d="M 261.730469 236.820312 L 328.113281 300.875 L 264.054688 367.257812 L 197.671875 303.199219 Z M 261.730469 236.820312 " clip-rule="nonzero"/></clipPath></defs><g clip-path="url(#73c1b673a3)"><g clip-path="url(#9e5afb380d)"><g clip-path="url(#2b8a35fb5d)"><path fill="#ffc701" d="M 97.628906 91.070312 C 96.515625 99.480469 108.15625 102.035156 113.832031 104.019531 C 118.101562 105.507812 124.332031 108.117188 123 113.847656 C 122.214844 117.226562 118.066406 118.859375 117.507812 121.953125 C 116.9375 125.101562 118.515625 127.65625 117.914062 130.871094 C 117.457031 133.328125 116.5625 135.6875 118.414062 137.652344 C 120.070312 139.410156 122.753906 138.710938 122.703125 142.257812 C 122.628906 147.828125 116.824219 148.585938 113.179688 150.6875 C 111.355469 151.738281 109.730469 153.296875 109.003906 155.277344 C 108.214844 157.425781 108.617188 159.945312 110.027344 161.679688 C 114.675781 167.382812 123.417969 163.15625 129.375 163.894531 C 133.035156 164.34375 136.035156 165.964844 137.121094 169.6875 C 137.832031 172.144531 138.019531 174.875 139.570312 176.882812 C 140.679688 178.320312 142.367188 179.199219 143.566406 180.5625 C 146.191406 183.535156 144.304688 189.058594 147.988281 191.132812 C 149.71875 192.109375 151.824219 192.121094 153.832031 192.046875 C 156.648438 191.945312 159.835938 191.511719 161.550781 194.230469 C 162.691406 196.039062 162.769531 198.363281 162.421875 200.515625 C 162.074219 202.664062 161.339844 204.746094 160.976562 206.898438 C 159.996094 212.632812 163.375 218.628906 169.832031 215.894531 C 173.320312 214.417969 175.652344 209.757812 177.640625 206.75 C 179.417969 204.058594 181.375 201.375 184.066406 199.613281 C 186.792969 197.835938 191.03125 197.152344 193.898438 198.683594 C 195.238281 199.398438 196.363281 200.433594 197.4375 201.519531 C 197.695312 201.78125 197.949219 202.046875 198.203125 202.308594 C 202.582031 206.859375 214.601562 225.933594 219.867188 210.582031 C 220.722656 208.09375 221.589844 204.808594 224.441406 204 C 229.722656 202.5 234.363281 207.105469 238.15625 200.601562 C 242.625 192.9375 234.277344 185.828125 237.703125 178.011719 C 239.183594 174.640625 241.789062 171.902344 244.339844 169.242188 C 246.515625 166.96875 249.367188 165.074219 249.898438 161.734375 C 250.378906 158.695312 249.683594 157.15625 251.796875 154.710938 C 253.632812 152.59375 256.632812 150.265625 255.464844 147.121094 C 255.070312 146.066406 254.375 145.171875 253.824219 144.199219 C 249.886719 137.304688 254.535156 132.230469 258.085938 126.648438 C 261.058594 121.980469 261.058594 116.078125 256.101562 112.816406 C 250.421875 109.082031 245.832031 114.226562 240.046875 113.996094 C 234.203125 113.757812 229.117188 109.480469 226.777344 104.308594 C 224.558594 99.410156 227.246094 92.210938 223.460938 88.371094 C 221.574219 86.457031 218.957031 85.496094 216.453125 84.503906 C 207.4375 80.929688 205.574219 74.148438 209.039062 66.089844 C 210.550781 62.574219 217.175781 50.007812 208.59375 50.617188 C 206.410156 50.773438 204.480469 52.324219 203.28125 54.199219 C 199.492188 60.132812 198.640625 67.585938 194.347656 73.304688 C 191.03125 77.71875 186.296875 77.757812 181.957031 75.117188 C 177.550781 72.429688 172.207031 66.335938 166.832031 65.761719 C 160.6875 65.105469 160.3125 72.140625 156.0625 75.515625 C 152.660156 78.214844 150.621094 76.3125 147.230469 78.117188 C 144.945312 79.335938 144.46875 82.308594 142.390625 83.632812 C 139.785156 85.296875 136.128906 83.671875 134.175781 86.921875 C 131.3125 91.691406 138.308594 98.910156 128.152344 99.890625 C 118.003906 100.867188 113.730469 82.480469 103.292969 84.84375 C 100.40625 85.5 98.019531 88.121094 97.628906 91.070312 " fill-opacity="1" fill-rule="nonzero"/></g></g></g><g clip-path="url(#a3ab8c0a4b)"><g clip-path="url(#74b1704488)"><g clip-path="url(#d23b7f49d3)"><path fill="#ffc701" d="M 217.808594 221.066406 C 217.148438 220.519531 216.398438 220.179688 215.566406 220.050781 C 214.796875 219.785156 213.996094 219.734375 213.167969 219.886719 C 212.332031 219.980469 211.574219 220.265625 210.894531 220.746094 C 210.121094 221.117188 209.480469 221.664062 208.96875 222.382812 C 208.683594 222.882812 208.398438 223.375 208.113281 223.875 C 207.6875 224.914062 207.542969 225.988281 207.671875 227.09375 C 207.800781 227.613281 207.933594 228.132812 208.066406 228.652344 C 208.484375 229.703125 209.140625 230.574219 210.035156 231.257812 C 210.695312 231.804688 211.441406 232.144531 212.273438 232.273438 C 213.046875 232.535156 213.84375 232.589844 214.671875 232.4375 C 215.507812 232.34375 216.265625 232.058594 216.949219 231.578125 C 217.722656 231.207031 218.363281 230.660156 218.871094 229.941406 C 219.160156 229.445312 219.445312 228.949219 219.730469 228.453125 C 220.152344 227.410156 220.300781 226.335938 220.171875 225.230469 C 220.039062 224.710938 219.90625 224.191406 219.777344 223.667969 C 219.355469 222.617188 218.699219 221.75 217.808594 221.066406 " fill-opacity="1" fill-rule="nonzero"/></g></g></g><g clip-path="url(#8b9eecf008)"><g clip-path="url(#28d976dafd)"><g clip-path="url(#d34274c6e7)"><path fill="#ffc701" d="M 262.246094 115.457031 C 262.589844 115.722656 262.945312 115.824219 263.300781 115.960938 C 263.433594 116.085938 263.484375 116.234375 263.636719 116.351562 C 268.90625 120.371094 275.339844 111.953125 270.0625 107.925781 C 267.898438 106.273438 265.578125 106.773438 263.910156 108.15625 C 261.074219 109.046875 259.210938 113.144531 262.246094 115.457031 " fill-opacity="1" fill-rule="nonzero"/></g></g></g><g clip-path="url(#f45aab17b0)"><g clip-path="url(#d25b24bc2f)"><g clip-path="url(#187311f7aa)"><path fill="#ffc701" d="M 251.011719 164.8125 C 251.101562 165.164062 251.191406 165.515625 251.277344 165.867188 C 251.5625 166.574219 252.003906 167.164062 252.605469 167.625 C 253.054688 167.992188 253.558594 168.222656 254.121094 168.308594 C 254.644531 168.488281 255.183594 168.527344 255.742188 168.421875 C 256.304688 168.359375 256.816406 168.164062 257.277344 167.839844 C 257.800781 167.589844 258.234375 167.222656 258.578125 166.734375 C 258.769531 166.402344 258.960938 166.066406 259.15625 165.730469 C 259.441406 165.027344 259.539062 164.300781 259.453125 163.554688 C 259.363281 163.203125 259.277344 162.851562 259.1875 162.5 C 258.902344 161.789062 258.457031 161.207031 257.855469 160.742188 C 257.410156 160.375 256.90625 160.144531 256.34375 160.058594 C 255.820312 159.878906 255.28125 159.84375 254.722656 159.945312 C 254.160156 160.011719 253.648438 160.203125 253.1875 160.527344 C 252.664062 160.777344 252.234375 161.144531 251.886719 161.632812 C 251.695312 161.96875 251.503906 162.304688 251.3125 162.636719 C 251.023438 163.34375 250.925781 164.066406 251.011719 164.8125 " fill-opacity="1" fill-rule="nonzero"/></g></g></g><g clip-path="url(#874a0b4c43)"><g clip-path="url(#d38e92397c)"><g clip-path="url(#5ab001fb24)"><path fill="#ffc701" d="M 136.816406 181.0625 C 136.734375 180.742188 136.652344 180.421875 136.574219 180.097656 C 136.3125 179.445312 135.902344 178.90625 135.351562 178.484375 C 134.941406 178.144531 134.476562 177.933594 133.960938 177.855469 C 133.484375 177.691406 132.988281 177.65625 132.476562 177.753906 C 131.957031 177.8125 131.488281 177.988281 131.066406 178.285156 C 130.585938 178.515625 130.1875 178.851562 129.871094 179.300781 C 129.695312 179.609375 129.519531 179.914062 129.34375 180.222656 C 129.082031 180.871094 128.988281 181.535156 129.066406 182.21875 C 129.148438 182.542969 129.230469 182.863281 129.3125 183.1875 C 129.574219 183.835938 129.980469 184.375 130.53125 184.800781 C 130.945312 185.140625 131.40625 185.347656 131.921875 185.429688 C 132.402344 185.59375 132.894531 185.625 133.410156 185.53125 C 133.925781 185.472656 134.394531 185.296875 134.820312 185 C 135.296875 184.769531 135.695312 184.429688 136.011719 183.984375 C 136.1875 183.675781 136.363281 183.367188 136.542969 183.0625 C 136.804688 182.414062 136.898438 181.75 136.816406 181.0625 " fill-opacity="1" fill-rule="nonzero"/></g></g></g><g clip-path="url(#667e4bf7ac)"><g clip-path="url(#3038e119fc)"><g clip-path="url(#4b0319e7b7)"><path fill="#ffc701" d="M 114.734375 123.0625 C 114.617188 122.597656 114.5 122.128906 114.378906 121.664062 C 114.003906 120.722656 113.414062 119.941406 112.613281 119.328125 C 112.019531 118.835938 111.351562 118.535156 110.601562 118.414062 C 109.910156 118.179688 109.195312 118.132812 108.453125 118.269531 C 107.703125 118.355469 107.023438 118.609375 106.410156 119.039062 C 105.71875 119.375 105.140625 119.863281 104.683594 120.511719 C 104.425781 120.957031 104.171875 121.398438 103.914062 121.847656 C 103.535156 122.78125 103.402344 123.746094 103.519531 124.734375 C 103.636719 125.203125 103.753906 125.667969 103.871094 126.136719 C 104.25 127.078125 104.839844 127.855469 105.640625 128.472656 C 106.234375 128.960938 106.902344 129.265625 107.652344 129.382812 C 108.34375 129.621094 109.058594 129.667969 109.800781 129.527344 C 110.550781 129.445312 111.234375 129.1875 111.84375 128.757812 C 112.539062 128.425781 113.113281 127.9375 113.570312 127.289062 C 113.824219 126.84375 114.082031 126.398438 114.339844 125.953125 C 114.71875 125.019531 114.847656 124.054688 114.734375 123.0625 " fill-opacity="1" fill-rule="nonzero"/></g></g></g><g clip-path="url(#5eb5532e78)"><g clip-path="url(#0732441f60)"><g clip-path="url(#58cffb85db)"><path fill="#ffc701" d="M 156.367188 53.824219 C 156.515625 54.410156 156.660156 54.996094 156.808594 55.578125 C 157.28125 56.761719 158.019531 57.734375 159.023438 58.503906 C 159.765625 59.121094 160.605469 59.5 161.542969 59.648438 C 162.410156 59.941406 163.308594 60.003906 164.238281 59.832031 C 165.179688 59.726562 166.03125 59.40625 166.796875 58.867188 C 167.667969 58.449219 168.386719 57.835938 168.960938 57.023438 C 169.28125 56.464844 169.601562 55.910156 169.921875 55.351562 C 170.398438 54.179688 170.5625 52.972656 170.417969 51.730469 C 170.273438 51.144531 170.125 50.558594 169.976562 49.976562 C 169.503906 48.796875 168.765625 47.820312 167.761719 47.050781 C 167.019531 46.433594 166.179688 46.054688 165.242188 45.90625 C 164.375 45.609375 163.476562 45.550781 162.546875 45.722656 C 161.609375 45.828125 160.753906 46.148438 159.988281 46.6875 C 159.121094 47.105469 158.398438 47.71875 157.824219 48.53125 C 157.503906 49.085938 157.183594 49.644531 156.863281 50.203125 C 156.386719 51.375 156.222656 52.582031 156.367188 53.824219 " fill-opacity="1" fill-rule="nonzero"/></g></g></g><g clip-path="url(#b94cd2e85d)"><g clip-path="url(#3e774061d3)"><g clip-path="url(#1d6f3c953f)"><path fill="#000000" d="M 235.175781 142.707031 C 236.375 137.21875 236.472656 131.691406 235.851562 126.152344 C 235.78125 125.515625 235.566406 124.910156 235.355469 124.300781 C 234.554688 122.082031 233.78125 119.871094 232.941406 117.675781 C 232.785156 117.246094 232.253906 116.890625 232.1875 116.480469 C 231.648438 113.316406 229.570312 110.980469 227.820312 108.5 C 227.210938 107.636719 226.175781 107.058594 225.339844 106.332031 C 223.828125 105.019531 222.21875 103.847656 220.839844 102.402344 C 218.472656 99.902344 216.101562 97.566406 212.316406 97.695312 C 211.882812 97.71875 211.445312 97.515625 211.058594 97.355469 C 210.253906 97.03125 209.511719 96.589844 208.695312 96.328125 C 207.753906 96.035156 206.796875 95.800781 205.796875 95.753906 C 204.316406 95.660156 203.554688 93.285156 201.714844 94.539062 C 201.640625 94.585938 201.460938 94.378906 201.3125 94.3125 C 199.46875 93.699219 197.640625 92.898438 195.734375 92.535156 C 193.554688 92.105469 191.304688 91.953125 189.089844 91.808594 C 184.882812 91.507812 180.71875 91.574219 176.648438 92.746094 C 174.898438 93.234375 173.257812 93.949219 171.511719 94.539062 C 169.738281 95.121094 168.019531 95.75 166.597656 97.035156 C 165.640625 97.882812 164.664062 98.691406 163.605469 99.414062 C 161.644531 100.765625 159.566406 101.929688 157.683594 103.367188 C 156.085938 104.578125 154.648438 106.058594 153.144531 107.425781 C 152.601562 107.914062 152.058594 108.402344 151.628906 108.953125 C 151.15625 109.558594 150.941406 110.320312 150.058594 110.597656 C 149.664062 110.730469 149.324219 111.203125 149.09375 111.605469 C 148.683594 112.355469 148.414062 113.203125 148.011719 113.921875 C 147.328125 115.128906 146.503906 116.234375 145.789062 117.433594 C 143.652344 121.128906 141.363281 124.785156 140.433594 129.03125 C 139.933594 131.230469 139.6875 133.457031 139.402344 135.707031 C 139.335938 136.113281 139.6875 136.558594 139.8125 136.980469 C 139.890625 137.195312 139.902344 137.425781 139.949219 137.632812 C 139.757812 137.621094 139.535156 137.597656 139.339844 137.585938 C 139.234375 137.625 139.125 137.664062 139.042969 137.742188 C 140.550781 138.921875 138.210938 141.03125 140.390625 142.019531 C 140.398438 143.195312 140.40625 144.371094 140.40625 145.582031 C 141.542969 145.886719 140.863281 146.933594 140.738281 147.585938 C 140.371094 149.914062 141.179688 151.972656 142.054688 154.011719 C 142.242188 154.449219 142.492188 154.902344 142.679688 155.339844 C 143.023438 156.074219 142.964844 157.136719 144.257812 157.191406 C 144.128906 156.769531 143.996094 156.375 143.894531 155.992188 C 144 155.953125 144.148438 155.890625 144.253906 155.851562 C 144.457031 156.359375 144.671875 156.832031 144.9375 157.484375 L 145.863281 157.710938 C 145.839844 157.800781 145.847656 157.902344 145.824219 157.996094 C 145.402344 157.992188 144.949219 157.976562 144.492188 157.964844 C 144.441406 158.3125 144.421875 158.667969 144.371094 159.015625 C 144.46875 159.003906 144.578125 158.964844 144.707031 158.964844 C 145.726562 161.105469 146.265625 163.457031 147.957031 165.238281 C 149.640625 167.050781 151.109375 169.070312 152.609375 170.96875 C 153.148438 170.902344 153.515625 170.863281 153.957031 170.804688 C 153.378906 172.234375 153.699219 172.800781 155.164062 173.21875 C 155.445312 173.289062 155.714844 173.515625 155.894531 173.722656 C 156.289062 174.113281 156.578125 174.671875 157.035156 174.945312 C 158.1875 175.714844 159.421875 176.40625 160.628906 177.089844 C 160.828125 177.203125 161.128906 177.179688 161.390625 177.175781 C 161.613281 177.199219 161.945312 177.050781 162.046875 177.171875 C 163.789062 179 166.28125 179.371094 168.402344 180.441406 C 169.015625 180.753906 169.785156 180.808594 170.5 180.949219 C 172.789062 181.472656 175.089844 182.09375 177.417969 182.460938 C 180.335938 182.941406 183.277344 183.195312 186.214844 183.484375 C 187.808594 183.640625 189.394531 183.828125 190.988281 183.855469 C 192.9375 183.902344 194.9375 183.863281 196.898438 183.71875 C 197.898438 183.636719 198.871094 183.121094 199.878906 183.003906 C 202.648438 182.632812 205.238281 181.917969 207.652344 180.445312 C 209.191406 179.480469 210.847656 178.707031 212.386719 177.742188 C 214.035156 176.734375 215.636719 175.65625 217.183594 174.527344 C 217.695312 174.160156 218.03125 173.589844 218.496094 173.148438 C 220.347656 171.441406 222.265625 169.847656 224.007812 168.050781 C 225.183594 166.832031 226.128906 165.363281 227.09375 163.933594 C 227.902344 162.757812 228.695312 161.511719 229.269531 160.214844 C 229.964844 158.683594 230.390625 157.058594 230.996094 155.507812 C 231.351562 154.582031 231.824219 153.714844 232.261719 152.839844 C 232.832031 151.707031 233.585938 150.613281 233.90625 149.417969 C 234.4375 147.230469 234.699219 144.941406 235.175781 142.707031 Z M 224.523438 150.28125 C 224.492188 150.40625 224.410156 150.484375 224.378906 150.605469 C 223.535156 154.222656 221.597656 157.375 219.820312 160.539062 C 218.613281 162.695312 216.832031 164.648438 215.042969 166.367188 C 212.332031 168.945312 209.429688 171.34375 206.46875 173.597656 C 204.578125 175.066406 202.550781 176.4375 200.332031 177.367188 C 198.550781 178.113281 196.453125 178.421875 194.480469 178.464844 C 191.011719 178.507812 187.539062 178.285156 184.101562 178.042969 C 182.71875 177.96875 181.34375 177.570312 179.964844 177.332031 L 179.933594 177.457031 C 177.40625 176.84375 174.863281 176.292969 172.386719 175.59375 C 171.5 175.347656 170.671875 174.851562 169.859375 174.429688 C 167.695312 173.25 165.5625 172.082031 163.445312 170.851562 C 162.671875 170.402344 161.945312 169.898438 161.300781 169.320312 C 160.148438 168.289062 159.023438 167.265625 158.03125 166.109375 C 156.882812 164.785156 155.855469 163.363281 154.867188 161.914062 C 153.808594 160.351562 152.835938 158.714844 151.960938 157.066406 C 150.164062 153.691406 148.339844 150.308594 147.703125 146.464844 C 147.664062 146.226562 147.59375 145.984375 147.511719 145.765625 C 146.535156 143.605469 146.574219 141.292969 146.640625 138.992188 C 146.671875 138.183594 146.382812 137.363281 146.351562 136.539062 C 146.308594 135.515625 146.382812 134.523438 146.398438 133.515625 C 146.464844 132.027344 146.492188 130.566406 146.621094 129.09375 C 146.667969 128.355469 146.917969 127.597656 147.035156 126.84375 C 147.132812 126.183594 147.1875 125.542969 147.28125 124.878906 C 147.304688 124.65625 147.332031 124.402344 147.417969 124.195312 C 149.703125 119.066406 152.339844 114.25 156.761719 110.554688 C 159.179688 108.527344 161.238281 106.089844 163.679688 104.101562 C 165.355469 102.710938 167.386719 101.734375 169.234375 100.582031 C 169.847656 100.207031 170.464844 99.800781 171.117188 99.535156 C 173.621094 98.507812 176.21875 97.898438 178.851562 97.261719 C 184.261719 95.960938 189.597656 96.175781 194.910156 97.296875 C 197.390625 97.832031 199.71875 99.148438 202.140625 100.0625 C 203.992188 100.773438 205.855469 101.449219 207.714844 102.128906 C 208.101562 102.289062 208.640625 102.355469 208.894531 102.644531 C 209.453125 103.300781 210.101562 103.328125 210.878906 103.355469 C 211.648438 103.410156 212.492188 103.84375 213.085938 104.34375 C 213.800781 104.910156 214.464844 105.398438 215.269531 105.855469 C 217.425781 107.0625 219.523438 108.515625 220.871094 110.769531 C 221.914062 112.523438 223.027344 114.261719 224.042969 116.011719 C 224.320312 116.46875 224.265625 117.109375 224.460938 117.648438 C 224.878906 118.761719 225.371094 119.828125 225.785156 120.9375 C 226.046875 121.621094 226.203125 122.3125 226.363281 123.003906 C 226.515625 123.726562 226.589844 124.496094 226.640625 125.226562 C 226.84375 127.757812 227.242188 130.304688 227.152344 132.828125 C 227.050781 136.886719 226.78125 140.96875 226.324219 145.003906 C 226.039062 146.859375 225.140625 148.539062 224.523438 150.28125 Z M 215.980469 144.847656 C 215.585938 143.511719 215.226562 142.152344 214.695312 140.847656 C 214.53125 140.449219 213.964844 140.082031 213.488281 139.902344 C 211.65625 139.230469 209.78125 138.613281 207.929688 138.035156 C 206.320312 137.546875 204.675781 137.179688 203.089844 136.730469 C 201.738281 136.371094 200.417969 135.886719 199.09375 135.566406 C 196.632812 134.9375 194.175781 134.441406 191.714844 133.8125 C 189.710938 133.328125 187.695312 132.742188 185.699219 132.226562 C 183.640625 131.695312 181.519531 131.277344 179.460938 130.746094 C 177.804688 130.3125 176.191406 129.695312 174.523438 129.289062 C 172.519531 128.804688 170.492188 128.28125 168.417969 128.074219 C 166.601562 127.894531 164.660156 127.421875 162.898438 128.757812 C 163.386719 130.25 163.386719 130.25 162.027344 130.867188 C 161.738281 130.992188 161.335938 131.15625 161.246094 131.398438 C 160.664062 132.855469 159.351562 134.105469 160.054688 135.90625 C 160.277344 136.484375 160.28125 137.136719 160.394531 137.753906 C 160.753906 139.765625 161.214844 141.773438 161.5 143.832031 C 161.851562 146.433594 163.121094 148.601562 164.636719 150.566406 C 166.253906 152.65625 168.214844 154.535156 170.167969 156.316406 C 172.011719 158.003906 174.113281 159.425781 176.042969 161.035156 C 177.941406 162.640625 180.148438 163.5 182.507812 163.875 C 185.085938 164.273438 187.738281 164.523438 190.371094 164.570312 C 192.25 164.636719 194.132812 164.40625 195.992188 164.269531 C 198.253906 164.097656 200.03125 162.832031 202.183594 162.570312 C 203.699219 162.378906 205.21875 161.636719 206.628906 160.933594 C 207.710938 160.378906 208.566406 159.410156 209.585938 158.710938 C 211.476562 157.375 213.050781 155.863281 213.828125 153.601562 C 214.355469 152.097656 215.214844 150.703125 215.78125 149.175781 C 216.121094 148.3125 216.226562 147.324219 216.320312 146.402344 C 216.332031 145.945312 216.144531 145.378906 215.980469 144.847656 Z M 193.332031 156.246094 C 191.78125 156.585938 190.167969 156.914062 188.574219 156.886719 C 185.703125 156.878906 182.832031 156.738281 179.972656 156.40625 C 178.070312 156.171875 176.621094 154.742188 175.082031 153.683594 C 173.875 152.871094 172.828125 151.800781 171.710938 150.878906 C 171.75 150.722656 171.753906 150.5625 171.792969 150.40625 C 173.84375 149.890625 175.972656 149.460938 177.984375 148.835938 C 180.3125 148.128906 182.644531 148.335938 184.980469 148.539062 C 187.375 148.761719 189.523438 149.738281 191.59375 151.023438 C 193.070312 151.9375 194.746094 152.570312 196.308594 153.40625 C 196.855469 153.703125 197.265625 154.160156 197.761719 154.542969 L 197.726562 154.957031 C 196.253906 155.382812 194.816406 155.917969 193.332031 156.246094 Z M 208.476562 145.351562 C 208.066406 146.101562 207.75 146.871094 207.433594 147.644531 C 206.449219 149.953125 204.914062 151.703125 202.453125 152.835938 C 201.484375 151.984375 200.523438 150.964844 199.371094 150.195312 C 197.257812 148.804688 195.007812 147.574219 192.796875 146.320312 C 191.5625 145.628906 190.300781 144.898438 188.988281 144.386719 C 186.859375 143.609375 184.777344 142.90625 182.410156 142.695312 C 179.855469 142.464844 177.351562 142.152344 174.839844 142.6875 C 172.878906 143.09375 170.941406 143.671875 169.359375 144.953125 C 168.464844 145.683594 168.085938 145.363281 167.878906 144.464844 C 167.273438 141.835938 166.675781 139.175781 166.078125 136.519531 C 165.90625 135.757812 165.667969 134.980469 165.5625 134.203125 C 165.480469 133.597656 165.539062 132.957031 165.546875 132.113281 C 167.039062 132.960938 168.222656 133.738281 169.464844 134.269531 C 170.675781 134.789062 172.027344 135.019531 173.335938 135.402344 C 177.078125 136.539062 181.015625 136.871094 184.75 138.296875 C 186.246094 138.855469 187.9375 139.558594 189.484375 139.640625 C 192.289062 139.796875 194.84375 140.710938 197.519531 141.257812 C 198.699219 141.511719 199.890625 141.574219 201.0625 141.855469 C 202.542969 142.214844 203.957031 142.71875 205.429688 143.109375 C 206.046875 143.257812 206.683594 143.316406 207.324219 143.371094 C 208.734375 143.484375 209.125 144.167969 208.476562 145.351562 Z M 195.125 126.605469 C 195.277344 126.511719 195.382812 126.210938 195.515625 126.210938 C 197.214844 126.328125 198.257812 125.40625 199.214844 124.136719 C 199.597656 123.640625 200.417969 123.21875 201.035156 123.238281 C 202.875 123.324219 205.738281 126.335938 205.957031 128.121094 C 206.128906 129.566406 206.308594 130.980469 206.6875 132.378906 C 206.800781 132.863281 207.46875 133.480469 207.945312 133.53125 C 210.179688 133.878906 212.007812 132.394531 212.359375 130.128906 C 212.398438 129.84375 212.433594 129.558594 212.554688 129.324219 C 213.675781 126.855469 212.703125 123.191406 210.566406 121.496094 C 208.148438 119.605469 205.378906 118.640625 202.40625 118.378906 C 201.226562 118.257812 199.902344 118.75 198.828125 119.273438 C 196.71875 120.296875 194.859375 121.773438 193.472656 123.722656 C 192.734375 124.753906 192.273438 125.980469 191.648438 127.203125 C 193.101562 127.683594 194.144531 127.28125 195.125 126.605469 Z M 166.316406 119.238281 C 167.992188 118.925781 169.246094 117.921875 170.050781 116.484375 C 170.667969 115.425781 171.867188 114.640625 173.023438 114.722656 C 174.148438 115.617188 175.359375 116.398438 176.324219 117.414062 C 176.996094 118.132812 177.480469 119.101562 177.773438 120.054688 C 178.082031 121.074219 177.972656 122.191406 178.113281 123.238281 C 178.285156 124.550781 180.03125 125.433594 181.046875 124.601562 C 181.820312 123.972656 182.554688 124.183594 183.320312 124.105469 C 183.691406 124.066406 184.261719 124.007812 184.382812 123.777344 C 184.667969 123.128906 184.917969 122.371094 184.898438 121.648438 C 184.820312 119.539062 184.933594 117.3125 183.253906 115.632812 C 182.671875 115.066406 181.84375 114.703125 181.378906 114.070312 C 180.359375 112.613281 178.671875 112.171875 177.332031 111.226562 C 176.324219 110.527344 175.292969 110.34375 174.175781 110.367188 C 171.605469 110.460938 169.601562 111.871094 167.875 113.476562 C 166.648438 114.617188 165.929688 116.238281 165.085938 117.699219 C 164.683594 118.417969 165.492188 119.398438 166.316406 119.238281 Z M 166.316406 119.238281 " fill-opacity="1" fill-rule="nonzero"/></g></g></g><g clip-path="url(#bcc59111ce)"><g clip-path="url(#fd27695e1d)"><g clip-path="url(#19b5e1accd)"><path stroke-linecap="butt" transform="matrix(0.308426, 0.0747027, -0.0747027, 0.308426, 151.783516, 81.628391)" fill="none" stroke-linejoin="miter" d="M 300.704148 125.200805 C 300.305781 107.502832 296.50479 90.502344 290.493863 73.99912 C 289.806218 72.101261 288.699113 70.406318 287.601074 68.696515 C 283.502776 62.495372 279.494017 56.297873 275.293472 50.197485 C 274.496207 48.997427 272.60552 48.302839 272.097899 47.095953 C 268.099927 37.805557 260.002708 32.193024 252.803194 25.894452 C 250.296557 23.702588 246.697445 22.69988 243.598352 21.09479 C 237.994975 18.196489 232.196828 15.801305 226.901684 12.397735 C 217.797484 6.497164 208.803018 1.101949 197.306214 4.30449 C 195.995675 4.697901 194.505113 4.400339 193.201947 4.196704 C 190.497011 3.800653 187.896561 2.999341 185.202096 2.803395 C 182.101626 2.604464 178.996767 2.596574 175.899395 3.194794 C 171.295768 4.005857 167.2012 -2.702793 162.496615 2.502181 C 162.304083 2.700795 161.6002 2.200029 161.096337 2.106761 C 154.994746 1.596182 148.801925 0.499775 142.694367 0.801207 C 135.70012 1.102094 128.696262 2.304531 121.805869 3.504816 C 108.698297 5.704334 95.994693 8.996527 84.398223 15.604789 C 79.400869 18.398314 74.906545 21.804578 69.996491 24.906252 C 64.996898 28.004281 60.199563 31.205304 56.79823 36.195944 C 54.495999 39.501883 52.104976 42.702678 49.398978 45.701129 C 44.39597 51.29501 38.894981 56.40158 34.194986 62.200702 C 30.200251 67.09443 26.895944 72.694823 23.304231 77.997541 C 22.003532 79.895715 20.702832 81.793889 19.795429 83.799445 C 18.796996 86.004362 18.704043 88.496569 16.206069 90.000815 C 15.096294 90.700222 14.406095 92.399869 13.998712 93.803044 C 13.298902 96.404241 13.10221 99.200206 12.403146 101.699901 C 11.204922 105.903633 9.500683 109.900631 8.200958 114.103617 C 4.39815 127.00586 0.0997971 139.901476 0.402202 153.595191 C 0.502238 160.70141 1.40017 167.70303 2.195855 174.805406 C 2.293827 176.098847 3.700847 177.201879 4.39661 178.401191 C 4.795243 179.001221 5.00209 179.698362 5.299221 180.297645 C 4.704327 180.403736 4.005034 180.497119 3.398177 180.606108 C 3.104144 180.803975 2.798148 181.00474 2.604871 181.304855 C 8.097767 183.799302 2.496451 191.995125 9.905052 193.404988 C 10.801149 197.000142 11.697246 200.595296 12.595496 204.303914 C 16.302823 204.393856 14.997762 208.104195 15.098832 210.194786 C 15.70124 217.597276 19.704663 223.302129 23.896975 228.897907 C 24.795741 230.098711 25.89751 231.301007 26.796277 232.501811 C 28.39379 234.495922 29.002482 237.7934 33.002896 237.001787 C 32.295169 235.805373 31.595762 234.695598 31.000754 233.598533 C 31.294787 233.400666 31.703031 233.099145 31.997063 232.901278 C 32.995839 234.305831 34.004427 235.594022 35.301826 237.394855 L 38.305184 237.402 C 38.300049 237.694541 38.399312 237.999791 38.397074 238.304296 C 37.102142 238.605271 35.702811 238.893537 34.294413 239.196663 C 34.396775 240.299064 34.600638 241.402211 34.703 242.504612 C 34.993389 242.396283 35.299386 242.195518 35.694174 242.099898 C 40.404464 247.89951 43.799739 254.701542 50.301137 258.90215 C 56.801789 263.204258 62.798032 268.299787 68.800157 273.001274 C 70.401831 272.398033 71.497404 272.006028 72.805792 271.499152 C 72.095739 276.306556 73.496877 277.803631 78.29315 277.997111 C 79.206663 278.003825 80.200189 278.497762 80.904072 278.998528 C 82.402122 279.902201 83.701758 281.39853 85.304293 281.896944 C 89.404285 283.398925 93.697555 284.600792 97.901286 285.799016 C 98.595443 285.998175 99.499231 285.703282 100.297873 285.497181 C 100.997166 285.403798 101.903938 284.702899 102.304808 284.998424 C 108.9965 289.304922 116.904346 288.59278 124.194346 290.297335 C 126.304388 290.799478 128.701721 290.396142 130.995315 290.296563 C 138.394076 290.201663 145.901166 290.397152 153.303657 289.794745 C 162.596633 289.101738 171.793329 287.697476 181.004141 286.403781 C 186.001064 285.7001 190.997242 285.097922 195.898546 283.999453 C 201.902996 282.697121 207.999222 281.093928 213.897581 279.196703 C 216.899333 278.203694 219.495711 275.903043 222.495312 274.79657 C 230.702011 271.605675 238.103413 267.4953 244.404336 261.194438 C 248.402169 257.097861 252.900882 253.500558 256.898715 249.403981 C 261.199646 245.094675 265.304862 240.604802 269.204923 235.999971 C 270.499741 234.49584 271.105537 232.500008 272.201742 230.803345 C 276.606098 224.201938 281.297859 217.898207 285.300599 211.102776 C 287.997504 206.49806 289.80313 201.298651 291.697548 196.204386 C 293.301777 192.003639 294.805997 187.599143 295.602604 183.201388 C 296.596218 177.996011 296.694824 172.703448 297.398795 167.504899 C 297.800728 164.405921 298.605023 161.399465 299.295854 158.39516 C 300.202196 154.502761 301.699788 150.593809 301.794119 146.695442 C 301.798482 139.601932 300.902042 132.397309 300.704148 125.200805 Z M 273.698672 156.29931 C 273.695688 156.705315 273.502411 157.00543 273.496529 157.399473 C 273.595617 169.103352 270.000172 180.194922 266.903915 191.203581 C 264.806723 198.702666 260.800253 206.005604 256.596003 212.59654 C 250.205884 222.503228 243.096275 232.001585 235.700007 241.100765 C 230.999266 247.001388 225.807371 252.704344 219.701848 257.19743 C 214.800027 260.803713 208.604652 263.304812 202.595066 264.899684 C 192.003542 267.60433 181.203019 269.498369 170.495678 271.306513 C 166.205621 272.104953 161.698991 271.904646 157.299199 272.19773 L 157.296215 272.603736 C 149.10105 272.600233 140.904393 272.799733 132.801003 272.495369 C 129.90279 272.399432 126.998581 271.494381 124.197279 270.805042 C 116.694551 268.797388 109.296221 266.802443 101.899383 264.604495 C 99.197431 263.802438 96.598473 262.798124 94.195689 261.505658 C 89.901559 259.202136 85.696968 256.902257 81.80061 254.097109 C 77.301126 250.893443 73.100063 247.30087 68.998351 243.595579 C 64.597269 239.595508 60.404326 235.304388 56.501772 230.904939 C 48.495154 221.901546 40.398997 212.89451 35.597765 201.594942 C 35.30138 200.894157 34.906391 200.20459 34.492898 199.595495 C 29.899716 193.704193 28.303983 186.592952 26.800686 179.497318 C 26.296593 176.997737 24.802819 174.699868 24.095724 172.198795 C 23.204962 169.096288 22.69628 166.002559 21.996558 162.904441 C 21.095957 158.297171 20.096006 153.802619 19.398408 149.19684 C 18.994325 146.901008 19.197845 144.394686 18.997511 141.998844 C 18.806903 139.90461 18.499186 137.902065 18.293716 135.798764 C 18.200334 135.099472 18.095735 134.301575 18.205355 133.603774 C 21.399358 116.200897 25.901862 99.494301 36.703193 84.896975 C 42.604624 76.89443 47.101187 67.902316 53.103374 60.002018 C 57.204085 54.500027 62.700599 50.002465 67.504448 45.102742 C 69.104516 43.499347 70.693368 41.797348 72.494201 40.499949 C 79.400604 35.496258 86.904167 31.703096 94.495116 27.800113 C 110.099373 19.803194 126.600588 16.503084 143.702261 15.995841 C 151.695916 15.794849 159.802517 18.09952 167.897788 19.102431 C 174.095744 19.906297 180.303512 20.593801 186.502215 21.296166 C 187.805381 21.4998 189.505573 21.30331 190.497607 22.000251 C 192.69515 23.595729 194.701338 23.198474 197.102315 22.705599 C 199.499649 22.302263 202.405349 23.00431 204.594659 24.095179 C 207.204089 25.299599 209.600044 26.302421 212.403498 27.105225 C 219.902583 29.202417 227.404766 32.09676 233.204002 37.999912 C 237.699212 42.597774 242.39817 47.095626 246.806739 51.701808 C 247.995149 52.895784 248.302866 54.898329 249.300896 56.404384 C 251.406777 59.503879 253.705189 62.404761 255.79621 65.495191 C 257.104826 67.394628 258.096229 69.396227 259.099595 71.394928 C 260.102215 73.49513 260.90034 75.796843 261.59771 77.996309 C 264.097431 85.597844 267.206907 93.102353 268.803586 100.89728 C 271.503124 113.402471 273.705626 126.104037 275.299119 138.801128 C 275.802149 144.695211 274.296551 150.505867 273.698672 156.29931 Z M 243.504436 145.995382 C 241.305173 142.196593 239.196193 138.299947 236.601396 134.69828 C 235.803385 133.599724 233.796336 132.895324 232.203527 132.698517 C 226.094362 131.999796 219.894168 131.500434 213.794729 131.103319 C 208.503658 130.801711 203.194743 130.897042 198.004427 130.697681 C 193.598553 130.59962 189.195663 130.095554 184.902508 130.096844 C 176.899128 129.996229 169.006229 130.299468 161.002849 130.198853 C 154.506384 130.201863 147.898692 129.90252 141.402973 129.804028 C 134.704251 129.704045 127.898146 129.997358 121.199424 129.897375 C 115.80536 129.798023 110.406706 129.104523 104.997035 129.097607 C 98.50057 129.100617 91.903349 129.00138 85.397273 129.905939 C 79.701057 130.703002 73.404697 130.69554 69.000227 136.093791 C 71.602512 140.301569 71.602512 140.301569 67.897106 143.200125 C 67.104545 143.797371 65.994025 144.59828 65.898519 145.406648 C 65.196786 150.300692 62.104347 155.10253 65.593522 160.096041 C 66.704271 161.701445 67.200129 163.696416 68.004882 165.502585 C 70.597757 171.3971 73.498779 177.204315 75.899123 183.297443 C 78.905605 191.004209 84.401828 196.70212 90.501065 201.595392 C 97.004069 206.796153 104.403373 211.095909 111.706311 215.102379 C 118.604736 218.902862 126.095702 221.698601 133.199367 225.196071 C 140.204428 228.704759 147.601151 229.69955 155.105143 229.097888 C 163.296464 228.405742 171.60498 227.203937 179.703006 225.394529 C 185.506605 224.20417 191.101951 222.101704 196.69506 220.303742 C 203.494309 218.09966 207.998789 212.905158 214.396421 210.507052 C 218.896195 208.796591 222.999373 205.396409 226.796555 202.196992 C 229.698929 199.695577 231.60029 196.094113 234.204041 193.196417 C 239.003299 187.702545 242.703141 181.90503 243.406137 174.40167 C 243.905613 169.404632 245.503101 164.496272 246.104824 159.398479 C 246.505266 156.502503 246.095187 153.397557 245.698478 150.50468 C 245.395351 149.096283 244.400965 147.50069 243.504436 145.995382 Z M 182.596438 197.704404 C 178.099103 199.895548 173.401663 202.097164 168.500359 203.195633 C 159.701549 205.301426 150.804221 207.000467 141.800802 208.104614 C 135.800828 208.797938 130.301935 205.494376 124.803157 203.393972 C 120.503806 201.80096 116.503709 199.29957 112.398381 197.304942 C 112.402111 196.797435 112.295273 196.304043 112.299003 195.796536 C 118.197248 192.696154 124.398505 189.801012 130.095984 186.394634 C 136.701641 182.502323 143.997294 181.406523 151.302013 180.295863 C 158.800669 179.201555 166.10487 180.598709 173.398715 182.998913 C 178.59887 184.703038 184.200527 185.398029 189.605923 186.799141 C 191.500999 187.30269 193.09616 188.398149 194.89946 189.202559 L 195.098934 190.496745 C 190.904611 192.89313 186.89909 195.598409 182.596438 197.704404 Z M 220.896752 153.104892 C 220.196942 155.706089 219.798739 158.29756 219.403433 160.900994 C 218.101153 168.701485 214.697697 175.199785 208.001125 180.494612 C 204.402558 178.605215 200.703322 176.195602 196.60333 174.69362 C 189.099655 172.00228 181.296065 169.90285 173.594723 167.702664 C 169.301454 166.500797 164.895465 165.19958 160.496219 164.605976 C 153.39961 163.804462 146.501615 163.195479 139.095395 164.305394 C 131.100449 165.494576 123.200177 166.39486 115.904752 169.896973 C 110.200531 172.595738 104.695583 175.803503 100.800858 180.90098 C 98.603112 183.801659 97.205072 183.101735 95.904575 180.503751 C 92.100196 172.901584 88.296563 165.197916 84.495828 157.506212 C 83.404416 155.300864 82.098037 153.096923 81.198411 150.794464 C 80.498057 149.001003 80.202304 146.995561 79.600353 144.405696 C 84.799103 145.894854 89.000596 147.397582 93.198992 148.103159 C 97.292988 148.796027 101.603242 148.499299 105.894905 148.701013 C 118.198928 149.406449 130.504214 147.50257 142.99873 149.099085 C 147.995022 149.700063 153.696689 150.598803 158.494999 149.702591 C 167.200541 148.100662 175.702563 149.005055 184.303075 148.695074 C 188.10433 148.597619 191.799493 147.905271 195.597104 147.897354 C 200.397766 147.899794 205.102263 148.394135 209.90218 148.498077 C 211.902487 148.494865 213.895966 148.202009 215.898511 147.894292 C 220.301287 147.195202 222.004691 148.999019 220.896752 153.104892 Z M 166.100767 105.597005 C 166.497793 105.196881 166.597688 104.197474 167.00444 104.098956 C 172.295397 103.197408 174.805766 99.60042 176.795058 95.002445 C 177.599467 93.199145 179.798819 91.298619 181.703506 90.900618 C 187.40196 89.799052 198.405081 96.89882 200.399218 102.203777 C 201.997706 106.5027 203.59694 110.70012 205.794712 114.701912 C 206.500947 116.101329 209.004486 117.496043 210.501675 117.298061 C 217.602559 116.705379 222.100297 110.803264 221.496398 103.603776 C 221.404507 102.701481 221.300654 101.802083 221.497661 100.994461 C 223.099855 92.602059 217.403069 82.101994 209.601603 78.494904 C 200.793902 74.498274 191.596231 73.597725 182.298033 75.001241 C 178.595295 75.505448 174.904836 77.995101 172.003208 80.395015 C 166.302199 85.094088 161.70296 90.995457 158.901885 97.993776 C 157.405784 101.699726 156.903956 105.798111 155.896772 110.006232 C 160.703516 110.399818 163.599263 108.393946 166.100767 105.597005 Z M 72.406705 104.403884 C 77.307148 102.203761 80.402685 98.199074 81.800813 93.199684 C 82.905769 89.499816 85.996085 86.205639 89.598066 85.599185 C 93.707038 87.504275 97.995172 88.998683 101.703473 91.393436 C 104.294313 93.096297 106.49636 95.703892 108.100615 98.405616 C 109.801982 101.299124 110.295717 104.801756 111.502947 107.903604 C 113.002917 111.795775 119.005358 113.20426 121.498629 109.90271 C 123.400849 107.402901 125.806416 107.504173 128.093268 106.696982 C 129.200805 106.30208 130.903981 105.699584 131.103886 104.903925 C 131.496207 102.706497 131.699728 100.200174 131.103859 98.001454 C 129.299902 91.599232 127.995218 84.696129 121.605047 80.797875 C 119.402368 79.494938 116.596677 78.996639 114.703638 77.403398 C 110.500424 73.69736 105.004859 73.597263 100.200238 71.696017 C 96.595044 70.302164 93.300551 70.50485 89.896436 71.405337 C 82.094136 73.599061 77.002996 79.404265 72.906129 85.601905 C 69.99575 90.005023 68.997 95.502941 67.496624 100.603087 C 66.79756 103.102782 70.001252 105.505768 72.406705 104.403884 Z M 72.406705 104.403884 " stroke="#f9ac85" stroke-width="1" stroke-opacity="1" stroke-miterlimit="10"/></g></g></g><g clip-path="url(#a33140b4a0)"><g clip-path="url(#5dd50441b2)"><g clip-path="url(#2f9c0147cf)"><path fill="#a6a6a6" d="M 315.25 301.148438 C 315.019531 288.234375 304.363281 277.953125 291.453125 278.183594 L 273.007812 278.507812 C 273.828125 279.144531 274.613281 279.835938 275.367188 280.566406 C 277.742188 282.859375 279.691406 285.464844 281.175781 288.304688 L 291.628906 288.121094 C 295.222656 288.054688 298.621094 289.394531 301.207031 291.886719 C 303.789062 294.382812 305.25 297.730469 305.3125 301.324219 C 305.378906 304.914062 304.042969 308.308594 301.542969 310.898438 C 299.050781 313.480469 295.699219 314.941406 292.109375 315.003906 L 271.65625 315.367188 C 268.0625 315.433594 264.660156 314.09375 262.078125 311.601562 C 259.488281 309.105469 258.03125 305.757812 257.96875 302.164062 C 257.933594 300.417969 258.238281 298.71875 258.84375 297.132812 C 257.59375 296.050781 256.011719 295.476562 254.347656 295.503906 L 248.894531 295.605469 C 248.296875 297.742188 247.992188 300.007812 248.027344 302.34375 C 248.257812 315.253906 258.914062 325.539062 271.828125 325.308594 L 292.289062 324.941406 C 305.199219 324.710938 315.480469 314.058594 315.25 301.148438 Z M 315.25 301.148438 " fill-opacity="1" fill-rule="nonzero"/></g></g></g><g clip-path="url(#8d336d60c1)"><g clip-path="url(#9fafb3a95a)"><g clip-path="url(#eb3d3dc6f8)"><path fill="#a6a6a6" d="M 250.621094 323.699219 C 248.238281 321.402344 246.277344 318.765625 244.773438 315.847656 L 234.246094 316.035156 C 230.652344 316.101562 227.253906 314.761719 224.667969 312.269531 C 222.085938 309.773438 220.628906 306.429688 220.5625 302.832031 C 220.496094 299.242188 221.835938 295.84375 224.332031 293.257812 C 226.824219 290.671875 230.175781 289.214844 233.769531 289.148438 L 254.226562 288.785156 C 257.816406 288.722656 261.210938 290.0625 263.796875 292.554688 C 266.386719 295.050781 267.839844 298.398438 267.90625 301.988281 C 267.9375 303.734375 267.636719 305.4375 267.03125 307.027344 C 268.28125 308.113281 269.871094 308.6875 271.535156 308.660156 L 276.980469 308.558594 C 277.582031 306.417969 277.886719 304.148438 277.847656 301.8125 C 277.617188 288.902344 266.960938 278.617188 254.046875 278.847656 L 233.589844 279.214844 C 220.671875 279.441406 210.394531 290.097656 210.625 303.015625 C 210.855469 315.925781 221.507812 326.207031 234.417969 325.976562 L 252.835938 325.648438 C 252.074219 325.039062 251.335938 324.390625 250.621094 323.703125 Z M 250.621094 323.699219 " fill-opacity="1" fill-rule="nonzero"/></g></g></g><g fill="#a6a6a6" fill-opacity="1"><g transform="translate(52.675782, 252.169467)"><g><path d="M 23.046875 0.578125 C 19.410156 0.578125 16.273438 0.101562 13.640625 -0.84375 C 11.003906 -1.800781 8.785156 -3.15625 6.984375 -4.90625 C 5.179688 -6.65625 3.738281 -8.707031 2.65625 -11.0625 C 1.582031 -13.414062 0.804688 -16.015625 0.328125 -18.859375 C -0.148438 -21.703125 -0.390625 -24.675781 -0.390625 -27.78125 C -0.390625 -30.894531 -0.148438 -33.875 0.328125 -36.71875 C 0.804688 -39.5625 1.582031 -42.160156 2.65625 -44.515625 C 3.738281 -46.867188 5.179688 -48.921875 6.984375 -50.671875 C 8.785156 -52.421875 11.003906 -53.769531 13.640625 -54.71875 C 16.273438 -55.675781 19.410156 -56.15625 23.046875 -56.15625 C 26.640625 -56.15625 29.664062 -55.722656 32.125 -54.859375 C 34.582031 -53.992188 36.546875 -52.851562 38.015625 -51.4375 C 39.484375 -50.03125 40.546875 -48.488281 41.203125 -46.8125 C 41.859375 -45.144531 42.1875 -43.5 42.1875 -41.875 C 42.1875 -40.457031 41.910156 -39.160156 41.359375 -37.984375 C 40.804688 -36.816406 40.078125 -35.804688 39.171875 -34.953125 C 38.273438 -34.109375 37.269531 -33.453125 36.15625 -32.984375 C 35.050781 -32.523438 33.957031 -32.296875 32.875 -32.296875 C 31.488281 -32.296875 30.285156 -32.757812 29.265625 -33.6875 C 28.253906 -34.613281 27.75 -36.09375 27.75 -38.125 C 27.75 -39.625 27.625 -40.832031 27.375 -41.75 C 27.132812 -42.675781 26.679688 -43.351562 26.015625 -43.78125 C 25.347656 -44.207031 24.359375 -44.421875 23.046875 -44.421875 C 21.421875 -44.421875 20.070312 -43.988281 19 -43.125 C 17.9375 -42.257812 17.09375 -41.0625 16.46875 -39.53125 C 15.851562 -38.007812 15.410156 -36.242188 15.140625 -34.234375 C 14.878906 -32.222656 14.75 -30.070312 14.75 -27.78125 C 14.75 -25.5 14.878906 -23.351562 15.140625 -21.34375 C 15.410156 -19.332031 15.851562 -17.5625 16.46875 -16.03125 C 17.09375 -14.5 17.9375 -13.300781 19 -12.4375 C 20.070312 -11.582031 21.421875 -11.15625 23.046875 -11.15625 C 24.359375 -11.15625 25.347656 -11.363281 26.015625 -11.78125 C 26.679688 -12.207031 27.132812 -12.882812 27.375 -13.8125 C 27.625 -14.738281 27.75 -15.945312 27.75 -17.4375 C 27.75 -19.5 28.253906 -20.984375 29.265625 -21.890625 C 30.285156 -22.804688 31.488281 -23.265625 32.875 -23.265625 C 33.957031 -23.265625 35.050781 -23.03125 36.15625 -22.5625 C 37.269531 -22.101562 38.273438 -21.445312 39.171875 -20.59375 C 40.078125 -19.75 40.804688 -18.742188 41.359375 -17.578125 C 41.910156 -16.410156 42.1875 -15.117188 42.1875 -13.703125 C 42.1875 -12.078125 41.859375 -10.425781 41.203125 -8.75 C 40.546875 -7.082031 39.484375 -5.539062 38.015625 -4.125 C 36.546875 -2.707031 34.582031 -1.566406 32.125 -0.703125 C 29.664062 0.148438 26.640625 0.578125 23.046875 0.578125 Z M 23.046875 0.578125 "/></g></g></g><g fill="#a6a6a6" fill-opacity="1"><g transform="translate(96.005643, 252.169467)"><g><path d="M 19.265625 0.578125 C 15.398438 0.578125 12.101562 -0.25 9.375 -1.90625 C 6.644531 -3.570312 4.5625 -5.894531 3.125 -8.875 C 1.6875 -11.863281 0.96875 -15.347656 0.96875 -19.328125 C 0.96875 -23.296875 1.6875 -26.765625 3.125 -29.734375 C 4.5625 -32.703125 6.644531 -35.015625 9.375 -36.671875 C 12.101562 -38.335938 15.398438 -39.171875 19.265625 -39.171875 C 23.117188 -39.171875 26.410156 -38.335938 29.140625 -36.671875 C 31.867188 -35.015625 33.953125 -32.703125 35.390625 -29.734375 C 36.828125 -26.765625 37.546875 -23.296875 37.546875 -19.328125 C 37.546875 -15.347656 36.828125 -11.863281 35.390625 -8.875 C 33.953125 -5.894531 31.867188 -3.570312 29.140625 -1.90625 C 26.410156 -0.25 23.117188 0.578125 19.265625 0.578125 Z M 15.828125 -19.265625 C 15.828125 -16.378906 16.140625 -14.046875 16.765625 -12.265625 C 17.398438 -10.492188 18.234375 -9.609375 19.265625 -9.609375 C 20.285156 -9.609375 21.109375 -10.492188 21.734375 -12.265625 C 22.367188 -14.046875 22.6875 -16.378906 22.6875 -19.265625 C 22.6875 -22.171875 22.367188 -24.507812 21.734375 -26.28125 C 21.109375 -28.0625 20.285156 -28.953125 19.265625 -28.953125 C 18.234375 -28.953125 17.398438 -28.0625 16.765625 -26.28125 C 16.140625 -24.507812 15.828125 -22.171875 15.828125 -19.265625 Z M 15.828125 -19.265625 "/></g></g></g><g fill="#a6a6a6" fill-opacity="1"><g transform="translate(134.512492, 252.169467)"><g><path d="M 0.390625 -33.15625 C 0.390625 -34.050781 0.75 -34.75 1.46875 -35.25 C 2.1875 -35.757812 3.097656 -36.171875 4.203125 -36.484375 C 5.304688 -36.804688 6.441406 -37.125 7.609375 -37.4375 C 8.066406 -37.5625 8.648438 -37.71875 9.359375 -37.90625 C 10.066406 -38.101562 10.785156 -38.296875 11.515625 -38.484375 C 12.253906 -38.679688 12.910156 -38.84375 13.484375 -38.96875 C 14.066406 -39.101562 14.488281 -39.171875 14.75 -39.171875 C 15.46875 -39.171875 16.15625 -38.894531 16.8125 -38.34375 C 17.46875 -37.789062 18 -36.769531 18.40625 -35.28125 C 18.457031 -35.070312 18.539062 -34.898438 18.65625 -34.765625 C 18.769531 -34.640625 18.957031 -34.578125 19.21875 -34.578125 C 19.445312 -34.578125 19.867188 -34.804688 20.484375 -35.265625 C 21.109375 -35.734375 21.910156 -36.269531 22.890625 -36.875 C 23.867188 -37.476562 25.023438 -38.007812 26.359375 -38.46875 C 27.691406 -38.9375 29.207031 -39.171875 30.90625 -39.171875 C 33.226562 -39.171875 35.113281 -38.648438 36.5625 -37.609375 C 38.019531 -36.566406 39.082031 -35.144531 39.75 -33.34375 C 40.0625 -33.757812 40.628906 -34.285156 41.453125 -34.921875 C 42.273438 -35.566406 43.285156 -36.21875 44.484375 -36.875 C 45.679688 -37.53125 47 -38.078125 48.4375 -38.515625 C 49.875 -38.953125 51.351562 -39.171875 52.875 -39.171875 C 55.21875 -39.171875 57.109375 -38.648438 58.546875 -37.609375 C 59.984375 -36.566406 61.039062 -35.128906 61.71875 -33.296875 C 62.40625 -31.472656 62.75 -29.378906 62.75 -27.015625 L 62.75 -19.296875 C 62.75 -17.523438 62.921875 -15.890625 63.265625 -14.390625 C 63.617188 -12.898438 64.03125 -11.519531 64.5 -10.25 C 64.976562 -8.976562 65.390625 -7.78125 65.734375 -6.65625 C 66.085938 -5.539062 66.265625 -4.46875 66.265625 -3.4375 C 66.265625 -2.507812 66.039062 -1.804688 65.59375 -1.328125 C 65.144531 -0.859375 64.59375 -0.523438 63.9375 -0.328125 C 63.28125 -0.128906 62.628906 -0.0234375 61.984375 -0.015625 C 61.335938 -0.00390625 60.8125 0 60.40625 0 L 51.875 0 C 51.300781 0 50.671875 -0.0390625 49.984375 -0.125 C 49.304688 -0.21875 48.660156 -0.378906 48.046875 -0.609375 C 47.429688 -0.847656 46.921875 -1.191406 46.515625 -1.640625 C 46.117188 -2.085938 45.921875 -2.6875 45.921875 -3.4375 C 45.921875 -5.15625 46.109375 -6.882812 46.484375 -8.625 C 46.859375 -10.363281 47.234375 -12.117188 47.609375 -13.890625 C 47.984375 -15.671875 48.144531 -17.472656 48.09375 -19.296875 C 48.0625 -20.097656 47.992188 -20.941406 47.890625 -21.828125 C 47.785156 -22.710938 47.601562 -23.546875 47.34375 -24.328125 C 47.09375 -25.117188 46.722656 -25.765625 46.234375 -26.265625 C 45.742188 -26.765625 45.113281 -27.015625 44.34375 -27.015625 C 43.570312 -27.015625 42.945312 -26.765625 42.46875 -26.265625 C 42 -25.765625 41.644531 -25.117188 41.40625 -24.328125 C 41.175781 -23.546875 41.015625 -22.710938 40.921875 -21.828125 C 40.835938 -20.941406 40.796875 -20.097656 40.796875 -19.296875 C 40.765625 -17.648438 40.925781 -16.078125 41.28125 -14.578125 C 41.644531 -13.085938 42.054688 -11.675781 42.515625 -10.34375 C 42.984375 -9.007812 43.398438 -7.757812 43.765625 -6.59375 C 44.128906 -5.4375 44.3125 -4.382812 44.3125 -3.4375 C 44.3125 -2.582031 44.125 -1.914062 43.75 -1.4375 C 43.375 -0.96875 42.890625 -0.632812 42.296875 -0.4375 C 41.703125 -0.25 41.0625 -0.128906 40.375 -0.078125 C 39.695312 -0.0234375 39.050781 0 38.4375 0 L 29.90625 0 C 29.34375 0 28.71875 -0.0390625 28.03125 -0.125 C 27.351562 -0.21875 26.703125 -0.378906 26.078125 -0.609375 C 25.460938 -0.847656 24.957031 -1.191406 24.5625 -1.640625 C 24.164062 -2.085938 23.96875 -2.6875 23.96875 -3.4375 C 23.96875 -5.15625 24.15625 -6.882812 24.53125 -8.625 C 24.90625 -10.363281 25.273438 -12.117188 25.640625 -13.890625 C 26.015625 -15.671875 26.175781 -17.472656 26.125 -19.296875 C 26.101562 -20.097656 26.039062 -20.941406 25.9375 -21.828125 C 25.832031 -22.710938 25.648438 -23.546875 25.390625 -24.328125 C 25.140625 -25.117188 24.769531 -25.765625 24.28125 -26.265625 C 23.789062 -26.765625 23.160156 -27.015625 22.390625 -27.015625 C 21.617188 -27.015625 20.992188 -26.765625 20.515625 -26.265625 C 20.035156 -25.765625 19.671875 -25.117188 19.421875 -24.328125 C 19.179688 -23.546875 19.015625 -22.703125 18.921875 -21.796875 C 18.835938 -20.898438 18.796875 -20.066406 18.796875 -19.296875 C 18.796875 -17.804688 18.96875 -16.351562 19.3125 -14.9375 C 19.664062 -13.519531 20.078125 -12.15625 20.546875 -10.84375 C 21.023438 -9.53125 21.441406 -8.253906 21.796875 -7.015625 C 22.160156 -5.785156 22.34375 -4.59375 22.34375 -3.4375 C 22.34375 -2.6875 22.144531 -2.085938 21.75 -1.640625 C 21.351562 -1.191406 20.84375 -0.847656 20.21875 -0.609375 C 19.601562 -0.378906 18.953125 -0.21875 18.265625 -0.125 C 17.585938 -0.0390625 16.96875 0 16.40625 0 L 6.515625 0 C 6.109375 0 5.582031 -0.00390625 4.9375 -0.015625 C 4.289062 -0.0234375 3.640625 -0.128906 2.984375 -0.328125 C 2.328125 -0.523438 1.773438 -0.859375 1.328125 -1.328125 C 0.878906 -1.804688 0.65625 -2.507812 0.65625 -3.4375 C 0.65625 -4.46875 0.828125 -5.539062 1.171875 -6.65625 C 1.523438 -7.78125 1.9375 -8.976562 2.40625 -10.25 C 2.882812 -11.519531 3.296875 -12.898438 3.640625 -14.390625 C 3.992188 -15.890625 4.171875 -17.523438 4.171875 -19.296875 C 4.171875 -20.992188 4.039062 -22.429688 3.78125 -23.609375 C 3.519531 -24.796875 3.203125 -25.8125 2.828125 -26.65625 C 2.460938 -27.507812 2.09375 -28.269531 1.71875 -28.9375 C 1.34375 -29.613281 1.023438 -30.28125 0.765625 -30.9375 C 0.515625 -31.59375 0.390625 -32.332031 0.390625 -33.15625 Z M 0.390625 -33.15625 "/></g></g></g><g fill="#a6a6a6" fill-opacity="1"><g transform="translate(201.1471, 252.169467)"><g><path d="M 0.96875 -19.296875 C 0.96875 -21.742188 1.382812 -24.148438 2.21875 -26.515625 C 3.050781 -28.878906 4.320312 -31.015625 6.03125 -32.921875 C 7.75 -34.828125 9.910156 -36.34375 12.515625 -37.46875 C 15.128906 -38.601562 18.226562 -39.171875 21.8125 -39.171875 C 23.789062 -39.171875 25.691406 -38.921875 27.515625 -38.421875 C 29.335938 -37.921875 30.960938 -37.160156 32.390625 -36.140625 C 33.828125 -35.128906 34.960938 -33.863281 35.796875 -32.34375 C 36.628906 -30.820312 37.046875 -29.046875 37.046875 -27.015625 C 37.046875 -24.773438 36.703125 -22.832031 36.015625 -21.1875 C 35.335938 -19.539062 34.425781 -18.148438 33.28125 -17.015625 C 32.132812 -15.890625 30.867188 -14.957031 29.484375 -14.21875 C 28.097656 -13.488281 26.695312 -12.90625 25.28125 -12.46875 C 23.9375 -12.050781 22.753906 -11.851562 21.734375 -11.875 C 20.722656 -11.90625 19.921875 -11.921875 19.328125 -11.921875 C 18.992188 -11.921875 18.742188 -11.890625 18.578125 -11.828125 C 18.410156 -11.765625 18.328125 -11.617188 18.328125 -11.390625 C 18.328125 -10.972656 18.550781 -10.632812 19 -10.375 C 19.457031 -10.125 20 -9.941406 20.625 -9.828125 C 21.257812 -9.710938 21.832031 -9.65625 22.34375 -9.65625 C 23.738281 -9.65625 24.910156 -9.828125 25.859375 -10.171875 C 26.804688 -10.515625 27.640625 -10.90625 28.359375 -11.34375 C 29.085938 -11.78125 29.785156 -12.171875 30.453125 -12.515625 C 31.117188 -12.867188 31.851562 -13.046875 32.65625 -13.046875 C 33.53125 -13.046875 34.28125 -12.832031 34.90625 -12.40625 C 35.539062 -11.976562 36.054688 -11.4375 36.453125 -10.78125 C 36.847656 -10.125 37.140625 -9.445312 37.328125 -8.75 C 37.523438 -8.0625 37.625 -7.4375 37.625 -6.875 C 37.625 -5.71875 37.0625 -4.566406 35.9375 -3.421875 C 34.820312 -2.273438 33.097656 -1.320312 30.765625 -0.5625 C 28.441406 0.195312 25.457031 0.578125 21.8125 0.578125 C 18.414062 0.578125 15.421875 0.0195312 12.828125 -1.09375 C 10.242188 -2.21875 8.070312 -3.726562 6.3125 -5.625 C 4.550781 -7.53125 3.21875 -9.664062 2.3125 -12.03125 C 1.414062 -14.40625 0.96875 -16.828125 0.96875 -19.296875 Z M 15.859375 -23.390625 C 15.210938 -21.742188 14.976562 -20.410156 15.15625 -19.390625 C 15.34375 -18.378906 15.910156 -17.875 16.859375 -17.875 C 17.835938 -17.875 18.820312 -18.378906 19.8125 -19.390625 C 20.800781 -20.410156 21.617188 -21.742188 22.265625 -23.390625 C 22.929688 -25.054688 23.164062 -26.398438 22.96875 -27.421875 C 22.78125 -28.441406 22.203125 -28.953125 21.234375 -28.953125 C 20.273438 -28.953125 19.304688 -28.441406 18.328125 -27.421875 C 17.347656 -26.398438 16.523438 -25.054688 15.859375 -23.390625 Z M 15.859375 -23.390625 "/></g></g></g><g fill="#a6a6a6" fill-opacity="1"><g transform="translate(238.959435, 252.169467)"><g><path d="M 15.40625 0.578125 C 12.519531 0.578125 9.992188 -0.1875 7.828125 -1.71875 C 5.671875 -3.25 3.988281 -5.492188 2.78125 -8.453125 C 1.570312 -11.410156 0.96875 -15.023438 0.96875 -19.296875 C 0.96875 -25.910156 2.039062 -30.875 4.1875 -34.1875 C 6.332031 -37.507812 9.234375 -39.171875 12.890625 -39.171875 C 14.410156 -39.171875 15.71875 -38.953125 16.8125 -38.515625 C 17.90625 -38.078125 18.820312 -37.570312 19.5625 -37 C 20.3125 -36.4375 20.910156 -35.9375 21.359375 -35.5 C 21.804688 -35.0625 22.132812 -34.84375 22.34375 -34.84375 C 22.550781 -34.84375 22.660156 -34.945312 22.671875 -35.15625 C 22.679688 -35.363281 22.6875 -35.800781 22.6875 -36.46875 C 22.6875 -37.625 22.519531 -38.816406 22.1875 -40.046875 C 21.851562 -41.285156 21.46875 -42.5625 21.03125 -43.875 C 20.59375 -45.1875 20.207031 -46.53125 19.875 -47.90625 C 19.539062 -49.289062 19.375 -50.703125 19.375 -52.140625 C 19.375 -53.066406 19.597656 -53.765625 20.046875 -54.234375 C 20.492188 -54.710938 21.046875 -55.046875 21.703125 -55.234375 C 22.359375 -55.429688 23.007812 -55.535156 23.65625 -55.546875 C 24.300781 -55.566406 24.828125 -55.578125 25.234375 -55.578125 L 34.421875 -55.578125 C 34.835938 -55.578125 35.363281 -55.566406 36 -55.546875 C 36.644531 -55.535156 37.296875 -55.429688 37.953125 -55.234375 C 38.609375 -55.046875 39.160156 -54.710938 39.609375 -54.234375 C 40.066406 -53.765625 40.296875 -53.066406 40.296875 -52.140625 C 40.296875 -50.617188 40.117188 -49.03125 39.765625 -47.375 C 39.421875 -45.71875 39.007812 -43.941406 38.53125 -42.046875 C 38.0625 -40.160156 37.648438 -38.101562 37.296875 -35.875 C 36.953125 -33.644531 36.78125 -31.207031 36.78125 -28.5625 C 36.78125 -25.21875 36.863281 -22.40625 37.03125 -20.125 C 37.195312 -17.851562 37.414062 -15.96875 37.6875 -14.46875 C 37.957031 -12.976562 38.238281 -11.742188 38.53125 -10.765625 C 38.832031 -9.785156 39.117188 -8.9375 39.390625 -8.21875 C 39.660156 -7.5 39.878906 -6.78125 40.046875 -6.0625 C 40.210938 -5.34375 40.296875 -4.46875 40.296875 -3.4375 C 40.296875 -2.507812 40.078125 -1.804688 39.640625 -1.328125 C 39.203125 -0.859375 38.671875 -0.523438 38.046875 -0.328125 C 37.429688 -0.128906 36.835938 -0.0234375 36.265625 -0.015625 C 35.703125 -0.00390625 35.296875 0 35.046875 0 C 34.085938 0 33.226562 -0.0820312 32.46875 -0.25 C 31.71875 -0.414062 30.941406 -0.582031 30.140625 -0.75 C 29.347656 -0.914062 28.382812 -1 27.25 -1 C 26.0625 -1 25.03125 -0.921875 24.15625 -0.765625 C 23.28125 -0.617188 22.441406 -0.4375 21.640625 -0.21875 C 20.847656 0 19.960938 0.1875 18.984375 0.34375 C 18.003906 0.5 16.8125 0.578125 15.40625 0.578125 Z M 15.828125 -19.21875 C 15.828125 -16.332031 16.140625 -14.003906 16.765625 -12.234375 C 17.398438 -10.460938 18.234375 -9.578125 19.265625 -9.578125 C 20.285156 -9.578125 21.109375 -10.460938 21.734375 -12.234375 C 22.367188 -14.003906 22.6875 -16.332031 22.6875 -19.21875 C 22.6875 -22.125 22.367188 -24.460938 21.734375 -26.234375 C 21.109375 -28.015625 20.285156 -28.90625 19.265625 -28.90625 C 18.234375 -28.90625 17.398438 -28.015625 16.765625 -26.234375 C 16.140625 -24.460938 15.828125 -22.125 15.828125 -19.21875 Z M 15.828125 -19.21875 "/></g></g></g><g fill="#a6a6a6" fill-opacity="1"><g transform="translate(279.626999, 252.169467)"><g><path d="M -0.390625 8.453125 C -0.390625 7.804688 -0.3125 7.082031 -0.15625 6.28125 C 0 5.488281 0.25 4.722656 0.59375 3.984375 C 0.945312 3.253906 1.40625 2.648438 1.96875 2.171875 C 2.53125 1.703125 3.210938 1.46875 4.015625 1.46875 C 4.992188 1.46875 5.828125 1.582031 6.515625 1.8125 C 7.210938 2.039062 7.863281 2.300781 8.46875 2.59375 C 9.070312 2.894531 9.703125 3.160156 10.359375 3.390625 C 11.015625 3.628906 11.78125 3.75 12.65625 3.75 C 13.789062 3.75 14.785156 3.484375 15.640625 2.953125 C 16.503906 2.421875 17.066406 1.628906 17.328125 0.578125 C 16.296875 -0.734375 15.425781 -2.28125 14.71875 -4.0625 C 14.007812 -5.851562 13.304688 -7.773438 12.609375 -9.828125 C 11.921875 -11.890625 11.0625 -13.988281 10.03125 -16.125 C 8.90625 -18.5 7.851562 -20.507812 6.875 -22.15625 C 5.894531 -23.800781 5.007812 -25.210938 4.21875 -26.390625 C 3.4375 -27.578125 2.757812 -28.625 2.1875 -29.53125 C 1.625 -30.445312 1.1875 -31.347656 0.875 -32.234375 C 0.570312 -33.128906 0.421875 -34.117188 0.421875 -35.203125 C 0.421875 -36.222656 0.757812 -37.039062 1.4375 -37.65625 C 2.125 -38.28125 2.984375 -38.59375 4.015625 -38.59375 L 16.328125 -38.59375 C 17.046875 -38.59375 17.789062 -38.507812 18.5625 -38.34375 C 19.332031 -38.175781 19.976562 -37.84375 20.5 -37.34375 C 21.03125 -36.84375 21.296875 -36.085938 21.296875 -35.078125 C 21.296875 -34.253906 21.128906 -33.40625 20.796875 -32.53125 C 20.460938 -31.65625 20.296875 -30.675781 20.296875 -29.59375 C 20.296875 -28.132812 20.59375 -26.585938 21.1875 -24.953125 C 21.78125 -23.316406 22.398438 -21.546875 23.046875 -19.640625 C 23.679688 -21.546875 24.296875 -23.316406 24.890625 -24.953125 C 25.484375 -26.585938 25.78125 -28.132812 25.78125 -29.59375 C 25.78125 -30.675781 25.613281 -31.65625 25.28125 -32.53125 C 24.945312 -33.40625 24.78125 -34.253906 24.78125 -35.078125 C 24.78125 -36.085938 25.039062 -36.84375 25.5625 -37.34375 C 26.09375 -37.84375 26.742188 -38.175781 27.515625 -38.34375 C 28.285156 -38.507812 29.03125 -38.59375 29.75 -38.59375 L 38.703125 -38.59375 C 39.734375 -38.59375 40.585938 -38.28125 41.265625 -37.65625 C 41.953125 -37.039062 42.296875 -36.222656 42.296875 -35.203125 C 42.296875 -34.453125 42.164062 -33.726562 41.90625 -33.03125 C 41.65625 -32.34375 41.265625 -31.5625 40.734375 -30.6875 C 40.203125 -29.8125 39.550781 -28.742188 38.78125 -27.484375 C 38.007812 -26.222656 37.113281 -24.675781 36.09375 -22.84375 C 35.082031 -21.019531 33.945312 -18.78125 32.6875 -16.125 C 31.6875 -13.988281 30.671875 -11.78125 29.640625 -9.5 C 28.609375 -7.226562 27.679688 -5.035156 26.859375 -2.921875 C 26.035156 -0.816406 25.421875 1.03125 25.015625 2.625 C 24.210938 5.789062 23.179688 8.375 21.921875 10.375 C 20.660156 12.382812 19.273438 13.9375 17.765625 15.03125 C 16.265625 16.125 14.757812 16.882812 13.25 17.3125 C 11.75 17.738281 10.367188 17.953125 9.109375 17.953125 C 6.921875 17.953125 5.125 17.53125 3.71875 16.6875 C 2.320312 15.851562 1.285156 14.722656 0.609375 13.296875 C -0.0546875 11.867188 -0.390625 10.253906 -0.390625 8.453125 Z M -0.390625 8.453125 "/></g></g></g><g fill="#a6a6a6" fill-opacity="1"><g transform="translate(39.199221, 321.544462)"><g><path d="M 23.046875 0.578125 C 19.410156 0.578125 16.273438 0.101562 13.640625 -0.84375 C 11.003906 -1.800781 8.785156 -3.15625 6.984375 -4.90625 C 5.179688 -6.65625 3.738281 -8.707031 2.65625 -11.0625 C 1.582031 -13.414062 0.804688 -16.015625 0.328125 -18.859375 C -0.148438 -21.703125 -0.390625 -24.675781 -0.390625 -27.78125 C -0.390625 -30.894531 -0.148438 -33.875 0.328125 -36.71875 C 0.804688 -39.5625 1.582031 -42.160156 2.65625 -44.515625 C 3.738281 -46.867188 5.179688 -48.921875 6.984375 -50.671875 C 8.785156 -52.421875 11.003906 -53.769531 13.640625 -54.71875 C 16.273438 -55.675781 19.410156 -56.15625 23.046875 -56.15625 C 26.640625 -56.15625 29.664062 -55.722656 32.125 -54.859375 C 34.582031 -53.992188 36.546875 -52.851562 38.015625 -51.4375 C 39.484375 -50.03125 40.546875 -48.488281 41.203125 -46.8125 C 41.859375 -45.144531 42.1875 -43.5 42.1875 -41.875 C 42.1875 -40.457031 41.910156 -39.160156 41.359375 -37.984375 C 40.804688 -36.816406 40.078125 -35.804688 39.171875 -34.953125 C 38.273438 -34.109375 37.269531 -33.453125 36.15625 -32.984375 C 35.050781 -32.523438 33.957031 -32.296875 32.875 -32.296875 C 31.488281 -32.296875 30.285156 -32.757812 29.265625 -33.6875 C 28.253906 -34.613281 27.75 -36.09375 27.75 -38.125 C 27.75 -39.625 27.625 -40.832031 27.375 -41.75 C 27.132812 -42.675781 26.679688 -43.351562 26.015625 -43.78125 C 25.347656 -44.207031 24.359375 -44.421875 23.046875 -44.421875 C 21.421875 -44.421875 20.070312 -43.988281 19 -43.125 C 17.9375 -42.257812 17.09375 -41.0625 16.46875 -39.53125 C 15.851562 -38.007812 15.410156 -36.242188 15.140625 -34.234375 C 14.878906 -32.222656 14.75 -30.070312 14.75 -27.78125 C 14.75 -25.5 14.878906 -23.351562 15.140625 -21.34375 C 15.410156 -19.332031 15.851562 -17.5625 16.46875 -16.03125 C 17.09375 -14.5 17.9375 -13.300781 19 -12.4375 C 20.070312 -11.582031 21.421875 -11.15625 23.046875 -11.15625 C 24.359375 -11.15625 25.347656 -11.363281 26.015625 -11.78125 C 26.679688 -12.207031 27.132812 -12.882812 27.375 -13.8125 C 27.625 -14.738281 27.75 -15.945312 27.75 -17.4375 C 27.75 -19.5 28.253906 -20.984375 29.265625 -21.890625 C 30.285156 -22.804688 31.488281 -23.265625 32.875 -23.265625 C 33.957031 -23.265625 35.050781 -23.03125 36.15625 -22.5625 C 37.269531 -22.101562 38.273438 -21.445312 39.171875 -20.59375 C 40.078125 -19.75 40.804688 -18.742188 41.359375 -17.578125 C 41.910156 -16.410156 42.1875 -15.117188 42.1875 -13.703125 C 42.1875 -12.078125 41.859375 -10.425781 41.203125 -8.75 C 40.546875 -7.082031 39.484375 -5.539062 38.015625 -4.125 C 36.546875 -2.707031 34.582031 -1.566406 32.125 -0.703125 C 29.664062 0.148438 26.640625 0.578125 23.046875 0.578125 Z M 23.046875 0.578125 "/></g></g></g><g fill="#a6a6a6" fill-opacity="1"><g transform="translate(82.529081, 321.544462)"><g><path d="M 19.265625 0.578125 C 15.398438 0.578125 12.101562 -0.25 9.375 -1.90625 C 6.644531 -3.570312 4.5625 -5.894531 3.125 -8.875 C 1.6875 -11.863281 0.96875 -15.347656 0.96875 -19.328125 C 0.96875 -23.296875 1.6875 -26.765625 3.125 -29.734375 C 4.5625 -32.703125 6.644531 -35.015625 9.375 -36.671875 C 12.101562 -38.335938 15.398438 -39.171875 19.265625 -39.171875 C 23.117188 -39.171875 26.410156 -38.335938 29.140625 -36.671875 C 31.867188 -35.015625 33.953125 -32.703125 35.390625 -29.734375 C 36.828125 -26.765625 37.546875 -23.296875 37.546875 -19.328125 C 37.546875 -15.347656 36.828125 -11.863281 35.390625 -8.875 C 33.953125 -5.894531 31.867188 -3.570312 29.140625 -1.90625 C 26.410156 -0.25 23.117188 0.578125 19.265625 0.578125 Z M 15.828125 -19.265625 C 15.828125 -16.378906 16.140625 -14.046875 16.765625 -12.265625 C 17.398438 -10.492188 18.234375 -9.609375 19.265625 -9.609375 C 20.285156 -9.609375 21.109375 -10.492188 21.734375 -12.265625 C 22.367188 -14.046875 22.6875 -16.378906 22.6875 -19.265625 C 22.6875 -22.171875 22.367188 -24.507812 21.734375 -26.28125 C 21.109375 -28.0625 20.285156 -28.953125 19.265625 -28.953125 C 18.234375 -28.953125 17.398438 -28.0625 16.765625 -26.28125 C 16.140625 -24.507812 15.828125 -22.171875 15.828125 -19.265625 Z M 15.828125 -19.265625 "/></g></g></g><g fill="#a6a6a6" fill-opacity="1"><g transform="translate(121.03593, 321.544462)"><g><path d="M 0.390625 -33.15625 C 0.390625 -34.050781 0.75 -34.75 1.46875 -35.25 C 2.1875 -35.757812 3.097656 -36.171875 4.203125 -36.484375 C 5.304688 -36.804688 6.441406 -37.125 7.609375 -37.4375 C 8.066406 -37.5625 8.648438 -37.71875 9.359375 -37.90625 C 10.066406 -38.101562 10.785156 -38.296875 11.515625 -38.484375 C 12.253906 -38.679688 12.910156 -38.84375 13.484375 -38.96875 C 14.066406 -39.101562 14.488281 -39.171875 14.75 -39.171875 C 15.46875 -39.171875 16.15625 -38.894531 16.8125 -38.34375 C 17.46875 -37.789062 18 -36.769531 18.40625 -35.28125 C 18.457031 -35.070312 18.539062 -34.898438 18.65625 -34.765625 C 18.769531 -34.640625 18.957031 -34.578125 19.21875 -34.578125 C 19.445312 -34.578125 19.867188 -34.804688 20.484375 -35.265625 C 21.109375 -35.734375 21.910156 -36.269531 22.890625 -36.875 C 23.867188 -37.476562 25.023438 -38.007812 26.359375 -38.46875 C 27.691406 -38.9375 29.207031 -39.171875 30.90625 -39.171875 C 33.25 -39.171875 35.140625 -38.648438 36.578125 -37.609375 C 38.023438 -36.566406 39.085938 -35.128906 39.765625 -33.296875 C 40.453125 -31.472656 40.796875 -29.378906 40.796875 -27.015625 L 40.796875 -19.296875 C 40.796875 -17.523438 40.96875 -15.890625 41.3125 -14.390625 C 41.65625 -12.898438 42.066406 -11.519531 42.546875 -10.25 C 43.023438 -8.976562 43.4375 -7.78125 43.78125 -6.65625 C 44.132812 -5.539062 44.3125 -4.46875 44.3125 -3.4375 C 44.3125 -2.507812 44.082031 -1.804688 43.625 -1.328125 C 43.175781 -0.859375 42.625 -0.523438 41.96875 -0.328125 C 41.3125 -0.128906 40.660156 -0.0234375 40.015625 -0.015625 C 39.378906 -0.00390625 38.851562 0 38.4375 0 L 31.21875 0 C 30.882812 0 30.425781 0 29.84375 0 C 29.269531 0 28.648438 -0.0390625 27.984375 -0.125 C 27.316406 -0.21875 26.671875 -0.378906 26.046875 -0.609375 C 25.429688 -0.847656 24.929688 -1.191406 24.546875 -1.640625 C 24.160156 -2.085938 23.96875 -2.6875 23.96875 -3.4375 C 23.96875 -5.15625 24.15625 -6.882812 24.53125 -8.625 C 24.90625 -10.363281 25.273438 -12.117188 25.640625 -13.890625 C 26.015625 -15.671875 26.175781 -17.472656 26.125 -19.296875 C 26.101562 -20.097656 26.039062 -20.941406 25.9375 -21.828125 C 25.832031 -22.710938 25.648438 -23.546875 25.390625 -24.328125 C 25.140625 -25.117188 24.769531 -25.765625 24.28125 -26.265625 C 23.789062 -26.765625 23.160156 -27.015625 22.390625 -27.015625 C 21.566406 -27.015625 20.910156 -26.765625 20.421875 -26.265625 C 19.929688 -25.765625 19.566406 -25.117188 19.328125 -24.328125 C 19.097656 -23.546875 18.953125 -22.703125 18.890625 -21.796875 C 18.828125 -20.898438 18.796875 -20.066406 18.796875 -19.296875 C 18.796875 -17.804688 18.972656 -16.335938 19.328125 -14.890625 C 19.691406 -13.453125 20.101562 -12.0625 20.5625 -10.71875 C 21.03125 -9.382812 21.441406 -8.109375 21.796875 -6.890625 C 22.160156 -5.671875 22.34375 -4.519531 22.34375 -3.4375 C 22.34375 -2.6875 22.148438 -2.085938 21.765625 -1.640625 C 21.378906 -1.191406 20.875 -0.847656 20.25 -0.609375 C 19.632812 -0.378906 18.992188 -0.21875 18.328125 -0.125 C 17.660156 -0.0390625 17.035156 0 16.453125 0 C 15.878906 0 15.425781 0 15.09375 0 L 6.515625 0 C 6.109375 0 5.582031 -0.00390625 4.9375 -0.015625 C 4.289062 -0.0234375 3.640625 -0.128906 2.984375 -0.328125 C 2.328125 -0.523438 1.773438 -0.859375 1.328125 -1.328125 C 0.878906 -1.804688 0.65625 -2.507812 0.65625 -3.4375 C 0.65625 -4.46875 0.828125 -5.539062 1.171875 -6.65625 C 1.523438 -7.78125 1.9375 -8.976562 2.40625 -10.25 C 2.882812 -11.519531 3.296875 -12.898438 3.640625 -14.390625 C 3.992188 -15.890625 4.171875 -17.523438 4.171875 -19.296875 C 4.171875 -20.992188 4.039062 -22.429688 3.78125 -23.609375 C 3.519531 -24.796875 3.203125 -25.8125 2.828125 -26.65625 C 2.460938 -27.507812 2.09375 -28.269531 1.71875 -28.9375 C 1.34375 -29.613281 1.023438 -30.28125 0.765625 -30.9375 C 0.515625 -31.59375 0.390625 -32.332031 0.390625 -33.15625 Z M 0.390625 -33.15625 "/></g></g></g><g fill="#a6a6a6" fill-opacity="1"><g transform="translate(165.716222, 321.544462)"><g><path d="M 0.390625 -33.15625 C 0.390625 -34.050781 0.75 -34.75 1.46875 -35.25 C 2.1875 -35.757812 3.097656 -36.171875 4.203125 -36.484375 C 5.304688 -36.804688 6.441406 -37.125 7.609375 -37.4375 C 8.066406 -37.5625 8.648438 -37.71875 9.359375 -37.90625 C 10.066406 -38.101562 10.785156 -38.296875 11.515625 -38.484375 C 12.253906 -38.679688 12.910156 -38.84375 13.484375 -38.96875 C 14.066406 -39.101562 14.488281 -39.171875 14.75 -39.171875 C 15.46875 -39.171875 16.15625 -38.894531 16.8125 -38.34375 C 17.46875 -37.789062 18 -36.769531 18.40625 -35.28125 C 18.457031 -35.070312 18.539062 -34.898438 18.65625 -34.765625 C 18.769531 -34.640625 18.957031 -34.578125 19.21875 -34.578125 C 19.445312 -34.578125 19.867188 -34.804688 20.484375 -35.265625 C 21.109375 -35.734375 21.910156 -36.269531 22.890625 -36.875 C 23.867188 -37.476562 25.023438 -38.007812 26.359375 -38.46875 C 27.691406 -38.9375 29.207031 -39.171875 30.90625 -39.171875 C 33.25 -39.171875 35.140625 -38.648438 36.578125 -37.609375 C 38.023438 -36.566406 39.085938 -35.128906 39.765625 -33.296875 C 40.453125 -31.472656 40.796875 -29.378906 40.796875 -27.015625 L 40.796875 -19.296875 C 40.796875 -17.523438 40.96875 -15.890625 41.3125 -14.390625 C 41.65625 -12.898438 42.066406 -11.519531 42.546875 -10.25 C 43.023438 -8.976562 43.4375 -7.78125 43.78125 -6.65625 C 44.132812 -5.539062 44.3125 -4.46875 44.3125 -3.4375 C 44.3125 -2.507812 44.082031 -1.804688 43.625 -1.328125 C 43.175781 -0.859375 42.625 -0.523438 41.96875 -0.328125 C 41.3125 -0.128906 40.660156 -0.0234375 40.015625 -0.015625 C 39.378906 -0.00390625 38.851562 0 38.4375 0 L 31.21875 0 C 30.882812 0 30.425781 0 29.84375 0 C 29.269531 0 28.648438 -0.0390625 27.984375 -0.125 C 27.316406 -0.21875 26.671875 -0.378906 26.046875 -0.609375 C 25.429688 -0.847656 24.929688 -1.191406 24.546875 -1.640625 C 24.160156 -2.085938 23.96875 -2.6875 23.96875 -3.4375 C 23.96875 -5.15625 24.15625 -6.882812 24.53125 -8.625 C 24.90625 -10.363281 25.273438 -12.117188 25.640625 -13.890625 C 26.015625 -15.671875 26.175781 -17.472656 26.125 -19.296875 C 26.101562 -20.097656 26.039062 -20.941406 25.9375 -21.828125 C 25.832031 -22.710938 25.648438 -23.546875 25.390625 -24.328125 C 25.140625 -25.117188 24.769531 -25.765625 24.28125 -26.265625 C 23.789062 -26.765625 23.160156 -27.015625 22.390625 -27.015625 C 21.566406 -27.015625 20.910156 -26.765625 20.421875 -26.265625 C 19.929688 -25.765625 19.566406 -25.117188 19.328125 -24.328125 C 19.097656 -23.546875 18.953125 -22.703125 18.890625 -21.796875 C 18.828125 -20.898438 18.796875 -20.066406 18.796875 -19.296875 C 18.796875 -17.804688 18.972656 -16.335938 19.328125 -14.890625 C 19.691406 -13.453125 20.101562 -12.0625 20.5625 -10.71875 C 21.03125 -9.382812 21.441406 -8.109375 21.796875 -6.890625 C 22.160156 -5.671875 22.34375 -4.519531 22.34375 -3.4375 C 22.34375 -2.6875 22.148438 -2.085938 21.765625 -1.640625 C 21.378906 -1.191406 20.875 -0.847656 20.25 -0.609375 C 19.632812 -0.378906 18.992188 -0.21875 18.328125 -0.125 C 17.660156 -0.0390625 17.035156 0 16.453125 0 C 15.878906 0 15.425781 0 15.09375 0 L 6.515625 0 C 6.109375 0 5.582031 -0.00390625 4.9375 -0.015625 C 4.289062 -0.0234375 3.640625 -0.128906 2.984375 -0.328125 C 2.328125 -0.523438 1.773438 -0.859375 1.328125 -1.328125 C 0.878906 -1.804688 0.65625 -2.507812 0.65625 -3.4375 C 0.65625 -4.46875 0.828125 -5.539062 1.171875 -6.65625 C 1.523438 -7.78125 1.9375 -8.976562 2.40625 -10.25 C 2.882812 -11.519531 3.296875 -12.898438 3.640625 -14.390625 C 3.992188 -15.890625 4.171875 -17.523438 4.171875 -19.296875 C 4.171875 -20.992188 4.039062 -22.429688 3.78125 -23.609375 C 3.519531 -24.796875 3.203125 -25.8125 2.828125 -26.65625 C 2.460938 -27.507812 2.09375 -28.269531 1.71875 -28.9375 C 1.34375 -29.613281 1.023438 -30.28125 0.765625 -30.9375 C 0.515625 -31.59375 0.390625 -32.332031 0.390625 -33.15625 Z M 0.390625 -33.15625 "/></g></g></g><g fill="#a6a6a6" fill-opacity="1"><g transform="translate(210.410147, 321.544462)"><g/></g></g><g fill="#a6a6a6" fill-opacity="1"><g transform="translate(225.072073, 321.544462)"><g/></g></g><g fill="#a6a6a6" fill-opacity="1"><g transform="translate(239.733999, 321.544462)"><g/></g></g><g fill="#a6a6a6" fill-opacity="1"><g transform="translate(254.395926, 321.544462)"><g/></g></g><g fill="#a6a6a6" fill-opacity="1"><g transform="translate(269.057852, 321.544462)"><g/></g></g><g fill="#a6a6a6" fill-opacity="1"><g transform="translate(283.719778, 321.544462)"><g/></g></g><g fill="#a6a6a6" fill-opacity="1"><g transform="translate(298.381704, 321.544462)"><g/></g></g><g fill="#a6a6a6" fill-opacity="1"><g transform="translate(313.051746, 321.544462)"><g><path d="M 13.234375 0.578125 C 10.847656 0.578125 8.679688 0.0703125 6.734375 -0.9375 C 4.796875 -1.957031 3.253906 -3.4375 2.109375 -5.375 C 0.960938 -7.320312 0.390625 -9.671875 0.390625 -12.421875 C 0.390625 -14.253906 0.617188 -16.003906 1.078125 -17.671875 C 1.546875 -19.347656 2.125 -20.929688 2.8125 -22.421875 C 3.507812 -23.910156 4.195312 -25.296875 4.875 -26.578125 C 5.5625 -27.867188 6.132812 -29.046875 6.59375 -30.109375 C 7.0625 -31.179688 7.296875 -32.144531 7.296875 -33 C 7.296875 -33.664062 7.203125 -34.113281 7.015625 -34.34375 C 6.835938 -34.582031 6.570312 -34.703125 6.21875 -34.703125 C 5.882812 -34.703125 5.472656 -34.632812 4.984375 -34.5 C 4.492188 -34.375 3.960938 -34.3125 3.390625 -34.3125 C 2.316406 -34.3125 1.550781 -34.535156 1.09375 -34.984375 C 0.644531 -35.429688 0.421875 -36.054688 0.421875 -36.859375 C 0.421875 -37.835938 1.035156 -39.007812 2.265625 -40.375 C 3.503906 -41.738281 5.101562 -43.316406 7.0625 -45.109375 C 8.21875 -46.191406 9.328125 -47.257812 10.390625 -48.3125 C 11.460938 -49.375 12.414062 -50.25 13.25 -50.9375 C 14.09375 -51.632812 14.734375 -51.984375 15.171875 -51.984375 C 15.679688 -51.984375 16.054688 -51.804688 16.296875 -51.453125 C 16.546875 -51.109375 16.710938 -50.679688 16.796875 -50.171875 C 16.890625 -49.660156 16.9375 -49.171875 16.9375 -48.703125 L 16.9375 -38.59375 L 18.53125 -38.59375 C 19.144531 -38.59375 19.644531 -38.398438 20.03125 -38.015625 C 20.414062 -37.628906 20.609375 -37.128906 20.609375 -36.515625 L 20.609375 -36.390625 C 20.609375 -35.773438 20.414062 -35.273438 20.03125 -34.890625 C 19.644531 -34.503906 19.144531 -34.3125 18.53125 -34.3125 L 16.9375 -34.3125 L 16.9375 -19.296875 C 16.9375 -16.929688 17.113281 -15 17.46875 -13.5 C 17.832031 -12.007812 18.285156 -10.820312 18.828125 -9.9375 C 19.367188 -9.050781 19.910156 -8.335938 20.453125 -7.796875 C 20.992188 -7.253906 21.441406 -6.769531 21.796875 -6.34375 C 22.160156 -5.925781 22.34375 -5.40625 22.34375 -4.78125 C 22.34375 -3.9375 22.066406 -3.175781 21.515625 -2.5 C 20.960938 -1.832031 20.234375 -1.265625 19.328125 -0.796875 C 18.429688 -0.335938 17.445312 0.00390625 16.375 0.234375 C 15.3125 0.460938 14.265625 0.578125 13.234375 0.578125 Z M 13.234375 0.578125 "/></g></g></g><g fill="#a6a6a6" fill-opacity="1"><g transform="translate(87.060952, 142.322482)"><g><path d="M 0.828125 0 L 0.828125 -8.921875 L 7.421875 -8.921875 L 7.40625 -6.9375 L 3.25 -6.9375 L 3.25 -5.453125 L 6.734375 -5.453125 L 6.734375 -3.515625 L 3.234375 -3.515625 L 3.234375 -2 L 7.4375 -2 L 7.4375 0 Z M 0.828125 0 "/></g></g></g><g fill="#a6a6a6" fill-opacity="1"><g transform="translate(95.356011, 142.322482)"><g><path d="M 3.375 0.125 C 2.925781 0.125 2.484375 0.0507812 2.046875 -0.09375 C 1.609375 -0.25 1.226562 -0.492188 0.90625 -0.828125 C 0.59375 -1.160156 0.394531 -1.597656 0.3125 -2.140625 L 2.34375 -2.140625 C 2.394531 -1.941406 2.488281 -1.789062 2.625 -1.6875 C 2.757812 -1.59375 2.894531 -1.53125 3.03125 -1.5 C 3.175781 -1.46875 3.285156 -1.453125 3.359375 -1.453125 C 3.628906 -1.453125 3.84375 -1.484375 4 -1.546875 C 4.164062 -1.609375 4.25 -1.707031 4.25 -1.84375 C 4.25 -1.957031 4.191406 -2.046875 4.078125 -2.109375 C 3.972656 -2.179688 3.773438 -2.238281 3.484375 -2.28125 L 2.546875 -2.4375 C 1.929688 -2.539062 1.4375 -2.75 1.0625 -3.0625 C 0.6875 -3.375 0.5 -3.8125 0.5 -4.375 C 0.488281 -4.769531 0.59375 -5.128906 0.8125 -5.453125 C 1.039062 -5.773438 1.375 -6.03125 1.8125 -6.21875 C 2.25 -6.40625 2.773438 -6.5 3.390625 -6.5 C 4.265625 -6.5 4.957031 -6.3125 5.46875 -5.9375 C 5.976562 -5.5625 6.234375 -5.046875 6.234375 -4.390625 L 4.28125 -4.390625 C 4.226562 -4.585938 4.113281 -4.734375 3.9375 -4.828125 C 3.769531 -4.921875 3.578125 -4.96875 3.359375 -4.96875 C 3.140625 -4.96875 2.953125 -4.929688 2.796875 -4.859375 C 2.640625 -4.796875 2.5625 -4.703125 2.5625 -4.578125 C 2.5625 -4.460938 2.632812 -4.367188 2.78125 -4.296875 C 2.9375 -4.234375 3.1875 -4.175781 3.53125 -4.125 L 4.34375 -3.96875 C 4.757812 -3.875 5.09375 -3.742188 5.34375 -3.578125 C 5.59375 -3.410156 5.785156 -3.226562 5.921875 -3.03125 C 6.054688 -2.832031 6.144531 -2.640625 6.1875 -2.453125 C 6.238281 -2.265625 6.265625 -2.101562 6.265625 -1.96875 C 6.265625 -1.519531 6.132812 -1.140625 5.875 -0.828125 C 5.625 -0.515625 5.28125 -0.273438 4.84375 -0.109375 C 4.40625 0.046875 3.914062 0.125 3.375 0.125 Z M 3.375 0.125 "/></g></g></g><g fill="#a6a6a6" fill-opacity="1"><g transform="translate(102.269639, 142.322482)"><g><path d="M 5.015625 -4.75 L 3.609375 -4.75 L 3.625 -1.859375 C 3.625 -1.765625 3.640625 -1.691406 3.671875 -1.640625 C 3.710938 -1.597656 3.757812 -1.566406 3.8125 -1.546875 C 3.875 -1.523438 3.941406 -1.515625 4.015625 -1.515625 L 5.015625 -1.515625 L 5.015625 -0.09375 C 4.921875 -0.0507812 4.78125 -0.0078125 4.59375 0.03125 C 4.40625 0.0703125 4.117188 0.09375 3.734375 0.09375 C 3.066406 0.09375 2.550781 0.0078125 2.1875 -0.15625 C 1.820312 -0.320312 1.566406 -0.539062 1.421875 -0.8125 C 1.285156 -1.09375 1.21875 -1.40625 1.21875 -1.75 L 1.21875 -4.75 L 0.1875 -4.75 L 0.1875 -6.375 L 1.3125 -6.375 L 1.921875 -8.375 L 3.609375 -8.375 L 3.609375 -6.390625 L 5.015625 -6.390625 Z M 5.015625 -4.75 "/></g></g></g><g fill="#a6a6a6" fill-opacity="1"><g transform="translate(253.452819, 142.322482)"><g><path d="M 0.625 0 L 0.625 -1.609375 C 0.625 -2.054688 0.707031 -2.441406 0.875 -2.765625 C 1.039062 -3.097656 1.257812 -3.382812 1.53125 -3.625 C 1.8125 -3.863281 2.113281 -4.070312 2.4375 -4.25 C 2.769531 -4.425781 3.101562 -4.585938 3.4375 -4.734375 C 3.769531 -4.878906 4.070312 -5.019531 4.34375 -5.15625 C 4.625 -5.300781 4.847656 -5.453125 5.015625 -5.609375 C 5.179688 -5.773438 5.265625 -5.96875 5.265625 -6.1875 C 5.265625 -6.445312 5.171875 -6.664062 4.984375 -6.84375 C 4.796875 -7.019531 4.535156 -7.109375 4.203125 -7.109375 C 3.878906 -7.109375 3.578125 -7.007812 3.296875 -6.8125 C 3.023438 -6.613281 2.84375 -6.269531 2.75 -5.78125 L 0.5 -5.78125 C 0.5 -6.394531 0.632812 -6.945312 0.90625 -7.4375 C 1.175781 -7.9375 1.585938 -8.328125 2.140625 -8.609375 C 2.703125 -8.898438 3.410156 -9.046875 4.265625 -9.046875 C 4.992188 -9.046875 5.617188 -8.925781 6.140625 -8.6875 C 6.671875 -8.445312 7.078125 -8.113281 7.359375 -7.6875 C 7.640625 -7.257812 7.78125 -6.765625 7.78125 -6.203125 C 7.78125 -5.765625 7.695312 -5.382812 7.53125 -5.0625 C 7.375 -4.738281 7.160156 -4.46875 6.890625 -4.25 C 6.628906 -4.03125 6.335938 -3.835938 6.015625 -3.671875 C 5.703125 -3.515625 5.382812 -3.375 5.0625 -3.25 C 4.75 -3.132812 4.457031 -3.015625 4.1875 -2.890625 C 3.925781 -2.773438 3.710938 -2.644531 3.546875 -2.5 C 3.390625 -2.351562 3.3125 -2.175781 3.3125 -1.96875 L 7.71875 -1.96875 L 7.71875 0 Z M 0.625 0 "/></g></g></g><g fill="#a6a6a6" fill-opacity="1"><g transform="translate(262.025397, 142.322482)"><g><path d="M 4.171875 -9.046875 C 5.328125 -9.046875 6.222656 -8.640625 6.859375 -7.828125 C 7.503906 -7.023438 7.828125 -5.894531 7.828125 -4.4375 C 7.828125 -3 7.507812 -1.875 6.875 -1.0625 C 6.25 -0.257812 5.347656 0.140625 4.171875 0.140625 C 3.003906 0.140625 2.097656 -0.257812 1.453125 -1.0625 C 0.816406 -1.875 0.5 -3 0.5 -4.4375 C 0.5 -5.40625 0.644531 -6.234375 0.9375 -6.921875 C 1.226562 -7.609375 1.648438 -8.132812 2.203125 -8.5 C 2.753906 -8.863281 3.410156 -9.046875 4.171875 -9.046875 Z M 4.171875 -1.78125 C 4.609375 -1.78125 4.910156 -1.976562 5.078125 -2.375 C 5.253906 -2.769531 5.34375 -3.457031 5.34375 -4.4375 C 5.34375 -5.4375 5.253906 -6.144531 5.078125 -6.5625 C 4.898438 -6.988281 4.597656 -7.203125 4.171875 -7.203125 C 3.734375 -7.203125 3.421875 -6.988281 3.234375 -6.5625 C 3.054688 -6.144531 2.96875 -5.4375 2.96875 -4.4375 C 2.96875 -3.46875 3.054688 -2.78125 3.234375 -2.375 C 3.410156 -1.976562 3.722656 -1.78125 4.171875 -1.78125 Z M 4.171875 -1.78125 "/></g></g></g><g fill="#a6a6a6" fill-opacity="1"><g transform="translate(270.653479, 142.322482)"><g><path d="M 0.625 0 L 0.625 -1.609375 C 0.625 -2.054688 0.707031 -2.441406 0.875 -2.765625 C 1.039062 -3.097656 1.257812 -3.382812 1.53125 -3.625 C 1.8125 -3.863281 2.113281 -4.070312 2.4375 -4.25 C 2.769531 -4.425781 3.101562 -4.585938 3.4375 -4.734375 C 3.769531 -4.878906 4.070312 -5.019531 4.34375 -5.15625 C 4.625 -5.300781 4.847656 -5.453125 5.015625 -5.609375 C 5.179688 -5.773438 5.265625 -5.96875 5.265625 -6.1875 C 5.265625 -6.445312 5.171875 -6.664062 4.984375 -6.84375 C 4.796875 -7.019531 4.535156 -7.109375 4.203125 -7.109375 C 3.878906 -7.109375 3.578125 -7.007812 3.296875 -6.8125 C 3.023438 -6.613281 2.84375 -6.269531 2.75 -5.78125 L 0.5 -5.78125 C 0.5 -6.394531 0.632812 -6.945312 0.90625 -7.4375 C 1.175781 -7.9375 1.585938 -8.328125 2.140625 -8.609375 C 2.703125 -8.898438 3.410156 -9.046875 4.265625 -9.046875 C 4.992188 -9.046875 5.617188 -8.925781 6.140625 -8.6875 C 6.671875 -8.445312 7.078125 -8.113281 7.359375 -7.6875 C 7.640625 -7.257812 7.78125 -6.765625 7.78125 -6.203125 C 7.78125 -5.765625 7.695312 -5.382812 7.53125 -5.0625 C 7.375 -4.738281 7.160156 -4.46875 6.890625 -4.25 C 6.628906 -4.03125 6.335938 -3.835938 6.015625 -3.671875 C 5.703125 -3.515625 5.382812 -3.375 5.0625 -3.25 C 4.75 -3.132812 4.457031 -3.015625 4.1875 -2.890625 C 3.925781 -2.773438 3.710938 -2.644531 3.546875 -2.5 C 3.390625 -2.351562 3.3125 -2.175781 3.3125 -1.96875 L 7.71875 -1.96875 L 7.71875 0 Z M 0.625 0 "/></g></g></g><g fill="#a6a6a6" fill-opacity="1"><g transform="translate(279.226056, 142.322482)"><g><path d="M 1.5 -8.921875 L 7.609375 -8.921875 L 7.5 -7 L 3.34375 -7 L 3.21875 -5.515625 C 3.570312 -5.617188 3.875 -5.695312 4.125 -5.75 C 4.375 -5.800781 4.65625 -5.828125 4.96875 -5.828125 C 5.613281 -5.828125 6.179688 -5.710938 6.671875 -5.484375 C 7.160156 -5.253906 7.539062 -4.921875 7.8125 -4.484375 C 8.082031 -4.046875 8.21875 -3.519531 8.21875 -2.90625 C 8.21875 -2.269531 8.066406 -1.722656 7.765625 -1.265625 C 7.472656 -0.816406 7.050781 -0.46875 6.5 -0.21875 C 5.945312 0.0195312 5.289062 0.140625 4.53125 0.140625 C 3.914062 0.140625 3.34375 0.0546875 2.8125 -0.109375 C 2.28125 -0.285156 1.816406 -0.515625 1.421875 -0.796875 C 1.023438 -1.085938 0.71875 -1.421875 0.5 -1.796875 L 2.28125 -3 C 2.457031 -2.769531 2.632812 -2.5625 2.8125 -2.375 C 3 -2.1875 3.203125 -2.035156 3.421875 -1.921875 C 3.648438 -1.804688 3.925781 -1.75 4.25 -1.75 C 4.6875 -1.75 5.039062 -1.851562 5.3125 -2.0625 C 5.582031 -2.269531 5.71875 -2.523438 5.71875 -2.828125 C 5.71875 -3.015625 5.660156 -3.191406 5.546875 -3.359375 C 5.441406 -3.523438 5.28125 -3.660156 5.0625 -3.765625 C 4.851562 -3.867188 4.59375 -3.921875 4.28125 -3.921875 C 4.15625 -3.921875 4.035156 -3.910156 3.921875 -3.890625 C 3.804688 -3.867188 3.679688 -3.832031 3.546875 -3.78125 C 3.410156 -3.738281 3.253906 -3.679688 3.078125 -3.609375 C 2.992188 -3.566406 2.929688 -3.546875 2.890625 -3.546875 C 2.859375 -3.554688 2.800781 -3.578125 2.71875 -3.609375 L 1.09375 -4.5 Z M 1.5 -8.921875 "/></g></g></g></svg>