<svg xmlns="http://www.w3.org/2000/svg" xmlns:xlink="http://www.w3.org/1999/xlink" width="500" zoomAndPan="magnify" viewBox="0 0 375 374.999991" height="500" preserveAspectRatio="xMidYMid meet" version="1.0"><defs><clipPath id="e96ae99ffa"><path d="M 24 26 L 327 26 L 327 336 L 24 336 Z M 24 26 " clip-rule="nonzero"/></clipPath><clipPath id="85cb016346"><path d="M 104.445312 -51.351562 L 397.746094 106.328125 L 244.328125 391.703125 L -48.972656 234.023438 Z M 104.445312 -51.351562 " clip-rule="nonzero"/></clipPath><clipPath id="51a6a0715c"><path d="M 104.445312 -51.351562 L 397.746094 106.328125 L 244.328125 391.703125 L -48.972656 234.023438 Z M 104.445312 -51.351562 " clip-rule="nonzero"/></clipPath><clipPath id="c2074de79f"><path d="M 229 341 L 253 341 L 253 365 L 229 365 Z M 229 341 " clip-rule="nonzero"/></clipPath><clipPath id="99c000c9f5"><path d="M 104.445312 -51.351562 L 397.746094 106.328125 L 244.328125 391.703125 L -48.972656 234.023438 Z M 104.445312 -51.351562 " clip-rule="nonzero"/></clipPath><clipPath id="e615afc643"><path d="M 104.445312 -51.351562 L 397.746094 106.328125 L 244.328125 391.703125 L -48.972656 234.023438 Z M 104.445312 -51.351562 " clip-rule="nonzero"/></clipPath><clipPath id="595cbb9d89"><path d="M 327 131 L 350 131 L 350 151 L 327 151 Z M 327 131 " clip-rule="nonzero"/></clipPath><clipPath id="cd4063b6a2"><path d="M 104.445312 -51.351562 L 397.746094 106.328125 L 244.328125 391.703125 L -48.972656 234.023438 Z M 104.445312 -51.351562 " clip-rule="nonzero"/></clipPath><clipPath id="475db394e7"><path d="M 104.445312 -51.351562 L 397.746094 106.328125 L 244.328125 391.703125 L -48.972656 234.023438 Z M 104.445312 -51.351562 " clip-rule="nonzero"/></clipPath><clipPath id="87b6825be8"><path d="M 309 229 L 326 229 L 326 246 L 309 246 Z M 309 229 " clip-rule="nonzero"/></clipPath><clipPath id="784d55aa6f"><path d="M 104.445312 -51.351562 L 397.746094 106.328125 L 244.328125 391.703125 L -48.972656 234.023438 Z M 104.445312 -51.351562 " clip-rule="nonzero"/></clipPath><clipPath id="ea1a6f6401"><path d="M 104.445312 -51.351562 L 397.746094 106.328125 L 244.328125 391.703125 L -48.972656 234.023438 Z M 104.445312 -51.351562 " clip-rule="nonzero"/></clipPath><clipPath id="77a2b362f9"><path d="M 82 262 L 98 262 L 98 278 L 82 278 Z M 82 262 " clip-rule="nonzero"/></clipPath><clipPath id="0f53abe15c"><path d="M 104.445312 -51.351562 L 397.746094 106.328125 L 244.328125 391.703125 L -48.972656 234.023438 Z M 104.445312 -51.351562 " clip-rule="nonzero"/></clipPath><clipPath id="dad314bcb3"><path d="M 104.445312 -51.351562 L 397.746094 106.328125 L 244.328125 391.703125 L -48.972656 234.023438 Z M 104.445312 -51.351562 " clip-rule="nonzero"/></clipPath><clipPath id="8840427520"><path d="M 35 152 L 57 152 L 57 174 L 35 174 Z M 35 152 " clip-rule="nonzero"/></clipPath><clipPath id="cadca6fdb0"><path d="M 104.445312 -51.351562 L 397.746094 106.328125 L 244.328125 391.703125 L -48.972656 234.023438 Z M 104.445312 -51.351562 " clip-rule="nonzero"/></clipPath><clipPath id="87738828db"><path d="M 104.445312 -51.351562 L 397.746094 106.328125 L 244.328125 391.703125 L -48.972656 234.023438 Z M 104.445312 -51.351562 " clip-rule="nonzero"/></clipPath><clipPath id="7dfbb9f4ae"><path d="M 133 17 L 161 17 L 161 44 L 133 44 Z M 133 17 " clip-rule="nonzero"/></clipPath><clipPath id="a083c253db"><path d="M 104.445312 -51.351562 L 397.746094 106.328125 L 244.328125 391.703125 L -48.972656 234.023438 Z M 104.445312 -51.351562 " clip-rule="nonzero"/></clipPath><clipPath id="06e2d5f996"><path d="M 104.445312 -51.351562 L 397.746094 106.328125 L 244.328125 391.703125 L -48.972656 234.023438 Z M 104.445312 -51.351562 " clip-rule="nonzero"/></clipPath><clipPath id="54bfd500a4"><path d="M 101 102 L 283 102 L 283 275 L 101 275 Z M 101 102 " clip-rule="nonzero"/></clipPath><clipPath id="19672d4b78"><path d="M 125.136719 84.058594 L 298.621094 126.078125 L 258.191406 293 L 84.707031 250.984375 Z M 125.136719 84.058594 " clip-rule="nonzero"/></clipPath><clipPath id="a7fefd4fa3"><path d="M 125.136719 84.058594 L 298.621094 126.078125 L 258.191406 293 L 84.707031 250.984375 Z M 125.136719 84.058594 " clip-rule="nonzero"/></clipPath><clipPath id="e88b81b3b3"><path d="M 93 94 L 291 94 L 291 283 L 93 283 Z M 93 94 " clip-rule="nonzero"/></clipPath><clipPath id="63594d2343"><path d="M 125.136719 84.058594 L 298.621094 126.078125 L 258.191406 293 L 84.707031 250.984375 Z M 125.136719 84.058594 " clip-rule="nonzero"/></clipPath><clipPath id="5e16b8dfee"><path d="M 125.136719 84.058594 L 298.621094 126.078125 L 258.191406 293 L 84.707031 250.984375 Z M 125.136719 84.058594 " clip-rule="nonzero"/></clipPath></defs><g clip-path="url(#e96ae99ffa)"><g clip-path="url(#85cb016346)"><g clip-path="url(#51a6a0715c)"><path fill="#ffc701" d="M 24.550781 101.664062 C 22.480469 117.304688 44.136719 122.0625 54.691406 125.75 C 62.632812 128.523438 74.226562 133.375 71.75 144.039062 C 70.285156 150.328125 62.570312 153.359375 61.527344 159.117188 C 60.472656 164.96875 63.410156 169.726562 62.289062 175.710938 C 61.4375 180.28125 59.769531 184.664062 63.214844 188.320312 C 66.296875 191.589844 71.289062 190.292969 71.199219 196.890625 C 71.058594 207.25 60.261719 208.660156 53.480469 212.570312 C 50.089844 214.53125 47.0625 217.429688 45.710938 221.109375 C 44.238281 225.105469 44.988281 229.796875 47.617188 233.019531 C 56.261719 243.636719 72.527344 235.769531 83.609375 237.140625 C 90.417969 237.980469 96 240.992188 98.019531 247.921875 C 99.34375 252.488281 99.6875 257.574219 102.574219 261.304688 C 104.640625 263.980469 107.777344 265.617188 110.011719 268.152344 C 114.894531 273.679688 111.386719 283.957031 118.234375 287.816406 C 121.453125 289.632812 125.375 289.652344 129.109375 289.519531 C 134.34375 289.328125 140.277344 288.523438 143.46875 293.582031 C 145.59375 296.945312 145.734375 301.265625 145.089844 305.269531 C 144.441406 309.273438 143.078125 313.144531 142.398438 317.144531 C 140.578125 327.816406 146.863281 338.972656 158.871094 333.882812 C 165.363281 331.132812 169.703125 322.46875 173.402344 316.871094 C 176.710938 311.863281 180.347656 306.867188 185.355469 303.597656 C 190.425781 300.289062 198.316406 299.015625 203.644531 301.863281 C 206.140625 303.195312 208.234375 305.121094 210.230469 307.140625 C 210.707031 307.628906 211.183594 308.121094 211.65625 308.609375 C 219.800781 317.074219 242.160156 352.558594 251.957031 324 C 253.546875 319.367188 255.164062 313.257812 260.464844 311.753906 C 270.292969 308.960938 278.929688 317.535156 285.984375 305.433594 C 294.296875 291.179688 278.765625 277.953125 285.144531 263.40625 C 287.898438 257.136719 292.742188 252.039062 297.488281 247.089844 C 301.535156 242.863281 306.839844 239.339844 307.832031 233.121094 C 308.722656 227.472656 307.433594 224.609375 311.363281 220.058594 C 314.773438 216.117188 320.359375 211.789062 318.183594 205.9375 C 317.453125 203.976562 316.15625 202.308594 315.128906 200.503906 C 307.808594 187.675781 316.453125 178.234375 323.0625 167.855469 C 328.59375 159.171875 328.589844 148.191406 319.371094 142.121094 C 308.804688 135.167969 300.265625 144.742188 289.5 144.308594 C 278.628906 143.871094 269.167969 135.914062 264.8125 126.289062 C 260.691406 117.179688 265.683594 103.78125 258.644531 96.644531 C 255.132812 93.082031 250.265625 91.292969 245.609375 89.445312 C 228.835938 82.792969 225.367188 70.179688 231.816406 55.191406 C 234.628906 48.648438 246.949219 25.269531 230.988281 26.40625 C 226.925781 26.695312 223.332031 29.578125 221.105469 33.0625 C 214.054688 44.101562 212.472656 57.96875 204.480469 68.609375 C 198.316406 76.820312 189.503906 76.898438 181.433594 71.980469 C 173.230469 66.984375 163.289062 55.644531 153.292969 54.578125 C 141.863281 53.355469 141.164062 66.445312 133.253906 72.726562 C 126.925781 77.746094 123.136719 74.207031 116.824219 77.5625 C 112.574219 79.828125 111.6875 85.359375 107.828125 87.824219 C 102.972656 90.925781 96.175781 87.898438 92.542969 93.945312 C 87.214844 102.820312 100.230469 116.25 81.332031 118.070312 C 62.457031 119.890625 54.503906 85.683594 35.089844 90.082031 C 29.71875 91.296875 25.277344 96.179688 24.550781 101.664062 " fill-opacity="1" fill-rule="nonzero"/></g></g></g><g clip-path="url(#c2074de79f)"><g clip-path="url(#99c000c9f5)"><g clip-path="url(#e615afc643)"><path fill="#ffc701" d="M 248.128906 343.507812 C 246.898438 342.488281 245.507812 341.859375 243.953125 341.613281 C 242.523438 341.125 241.035156 341.023438 239.496094 341.3125 C 237.941406 341.484375 236.53125 342.019531 235.261719 342.910156 C 233.824219 343.597656 232.632812 344.613281 231.683594 345.957031 C 231.152344 346.882812 230.621094 347.804688 230.089844 348.730469 C 229.300781 350.664062 229.03125 352.664062 229.269531 354.71875 C 229.511719 355.683594 229.753906 356.652344 230.003906 357.621094 C 230.78125 359.574219 232.007812 361.191406 233.664062 362.464844 C 234.894531 363.480469 236.285156 364.113281 237.835938 364.355469 C 239.269531 364.84375 240.757812 364.945312 242.296875 364.660156 C 243.851562 364.484375 245.261719 363.949219 246.53125 363.0625 C 247.96875 362.371094 249.164062 361.355469 250.109375 360.015625 C 250.640625 359.089844 251.171875 358.167969 251.703125 357.246094 C 252.492188 355.304688 252.765625 353.308594 252.527344 351.253906 C 252.28125 350.285156 252.035156 349.316406 251.792969 348.347656 C 251.007812 346.394531 249.789062 344.78125 248.128906 343.507812 " fill-opacity="1" fill-rule="nonzero"/></g></g></g><g clip-path="url(#595cbb9d89)"><g clip-path="url(#cd4063b6a2)"><g clip-path="url(#475db394e7)"><path fill="#ffc701" d="M 330.796875 147.03125 C 331.441406 147.523438 332.101562 147.714844 332.757812 147.964844 C 333.007812 148.199219 333.101562 148.476562 333.386719 148.691406 C 343.1875 156.171875 355.160156 140.511719 345.34375 133.023438 C 341.316406 129.949219 336.996094 130.878906 333.894531 133.449219 C 328.621094 135.105469 325.15625 142.726562 330.796875 147.03125 " fill-opacity="1" fill-rule="nonzero"/></g></g></g><g clip-path="url(#87b6825be8)"><g clip-path="url(#784d55aa6f)"><g clip-path="url(#ea1a6f6401)"><path fill="#ffc701" d="M 309.898438 238.851562 C 310.066406 239.503906 310.230469 240.160156 310.394531 240.8125 C 310.921875 242.132812 311.75 243.222656 312.867188 244.082031 C 313.699219 244.769531 314.636719 245.195312 315.6875 245.359375 C 316.65625 245.691406 317.660156 245.757812 318.699219 245.5625 C 319.746094 245.449219 320.699219 245.085938 321.554688 244.484375 C 322.527344 244.019531 323.332031 243.335938 323.972656 242.429688 C 324.332031 241.804688 324.691406 241.179688 325.046875 240.558594 C 325.582031 239.246094 325.761719 237.894531 325.601562 236.511719 C 325.4375 235.859375 325.273438 235.203125 325.109375 234.550781 C 324.578125 233.230469 323.753906 232.140625 322.632812 231.28125 C 321.804688 230.59375 320.867188 230.167969 319.820312 230.003906 C 318.847656 229.675781 317.84375 229.605469 316.804688 229.800781 C 315.757812 229.917969 314.804688 230.273438 313.949219 230.878906 C 312.976562 231.34375 312.171875 232.027344 311.53125 232.933594 C 311.171875 233.558594 310.8125 234.183594 310.457031 234.808594 C 309.925781 236.117188 309.738281 237.464844 309.898438 238.851562 " fill-opacity="1" fill-rule="nonzero"/></g></g></g><g clip-path="url(#77a2b362f9)"><g clip-path="url(#0f53abe15c)"><g clip-path="url(#dad314bcb3)"><path fill="#ffc701" d="M 97.453125 269.085938 C 97.300781 268.484375 97.148438 267.886719 97 267.285156 C 96.511719 266.074219 95.753906 265.074219 94.726562 264.285156 C 93.964844 263.65625 93.101562 263.265625 92.140625 263.113281 C 91.253906 262.808594 90.332031 262.75 89.375 262.925781 C 88.414062 263.03125 87.539062 263.363281 86.753906 263.917969 C 85.863281 264.34375 85.121094 264.972656 84.535156 265.804688 C 84.207031 266.375 83.878906 266.949219 83.546875 267.519531 C 83.0625 268.722656 82.890625 269.960938 83.039062 271.234375 C 83.1875 271.832031 83.339844 272.433594 83.492188 273.035156 C 83.976562 274.246094 84.734375 275.246094 85.761719 276.035156 C 86.527344 276.667969 87.386719 277.054688 88.347656 277.207031 C 89.238281 277.511719 90.160156 277.574219 91.113281 277.394531 C 92.074219 277.285156 92.949219 276.957031 93.738281 276.40625 C 94.628906 275.980469 95.363281 275.347656 95.957031 274.515625 C 96.285156 273.945312 96.613281 273.371094 96.941406 272.800781 C 97.433594 271.597656 97.601562 270.359375 97.453125 269.085938 " fill-opacity="1" fill-rule="nonzero"/></g></g></g><g clip-path="url(#8840427520)"><g clip-path="url(#cadca6fdb0)"><g clip-path="url(#87738828db)"><path fill="#ffc701" d="M 56.371094 161.179688 C 56.152344 160.3125 55.933594 159.445312 55.714844 158.578125 C 55.011719 156.824219 53.914062 155.375 52.429688 154.234375 C 51.324219 153.320312 50.078125 152.757812 48.683594 152.535156 C 47.398438 152.09375 46.066406 152.007812 44.683594 152.261719 C 43.289062 152.417969 42.023438 152.898438 40.882812 153.695312 C 39.597656 154.316406 38.523438 155.230469 37.675781 156.433594 C 37.199219 157.257812 36.71875 158.085938 36.246094 158.917969 C 35.539062 160.65625 35.289062 162.449219 35.503906 164.292969 C 35.726562 165.160156 35.945312 166.027344 36.164062 166.898438 C 36.867188 168.648438 37.960938 170.097656 39.453125 171.242188 C 40.554688 172.15625 41.804688 172.71875 43.195312 172.9375 C 44.480469 173.378906 45.816406 173.46875 47.195312 173.210938 C 48.589844 173.054688 49.855469 172.578125 50.992188 171.777344 C 52.285156 171.160156 53.355469 170.246094 54.207031 169.042969 C 54.679688 168.214844 55.15625 167.386719 55.636719 166.558594 C 56.339844 164.816406 56.585938 163.027344 56.371094 161.179688 " fill-opacity="1" fill-rule="nonzero"/></g></g></g><g clip-path="url(#7dfbb9f4ae)"><g clip-path="url(#a083c253db)"><g clip-path="url(#06e2d5f996)"><path fill="#ffc701" d="M 133.820312 32.371094 C 134.097656 33.460938 134.371094 34.546875 134.648438 35.636719 C 135.527344 37.832031 136.902344 39.648438 138.761719 41.078125 C 140.148438 42.222656 141.710938 42.929688 143.457031 43.207031 C 145.066406 43.753906 146.738281 43.871094 148.46875 43.546875 C 150.214844 43.351562 151.800781 42.753906 153.226562 41.75 C 154.847656 40.972656 156.1875 39.832031 157.25 38.324219 C 157.847656 37.285156 158.449219 36.25 159.042969 35.210938 C 159.929688 33.027344 160.238281 30.785156 159.964844 28.476562 C 159.695312 27.386719 159.417969 26.296875 159.144531 25.210938 C 158.265625 23.015625 156.890625 21.199219 155.023438 19.765625 C 153.640625 18.625 152.078125 17.914062 150.335938 17.640625 C 148.722656 17.089844 147.050781 16.976562 145.320312 17.300781 C 143.574219 17.496094 141.988281 18.09375 140.5625 19.09375 C 138.945312 19.871094 137.605469 21.011719 136.539062 22.519531 C 135.941406 23.558594 135.34375 24.597656 134.746094 25.632812 C 133.863281 27.816406 133.554688 30.0625 133.820312 32.371094 " fill-opacity="1" fill-rule="nonzero"/></g></g></g><g clip-path="url(#54bfd500a4)"><g clip-path="url(#19672d4b78)"><g clip-path="url(#a7fefd4fa3)"><path fill="#000000" d="M 280.441406 197.730469 C 282.671875 187.519531 282.855469 177.234375 281.707031 166.933594 C 281.566406 165.746094 281.171875 164.617188 280.777344 163.488281 C 279.285156 159.363281 277.851562 155.25 276.292969 151.164062 C 276 150.363281 275.003906 149.699219 274.886719 148.941406 C 273.882812 143.046875 270.011719 138.710938 266.757812 134.09375 C 265.628906 132.484375 263.703125 131.410156 262.144531 130.0625 C 259.335938 127.617188 256.339844 125.433594 253.773438 122.746094 C 249.371094 118.097656 244.957031 113.746094 237.914062 113.984375 C 237.109375 114.035156 236.292969 113.652344 235.574219 113.359375 C 234.082031 112.753906 232.699219 111.933594 231.179688 111.445312 C 229.425781 110.898438 227.648438 110.46875 225.785156 110.378906 C 223.035156 110.199219 221.613281 105.785156 218.195312 108.117188 C 218.050781 108.203125 217.71875 107.820312 217.445312 107.691406 C 214.015625 106.558594 210.609375 105.066406 207.070312 104.390625 C 203.011719 103.589844 198.828125 103.304688 194.699219 103.035156 C 186.878906 102.476562 179.132812 102.605469 171.558594 104.777344 C 168.300781 105.691406 165.246094 107.015625 162.003906 108.113281 C 158.703125 109.199219 155.503906 110.367188 152.859375 112.765625 C 151.078125 114.335938 149.257812 115.839844 147.292969 117.1875 C 143.644531 119.703125 139.78125 121.867188 136.277344 124.542969 C 133.300781 126.796875 130.628906 129.550781 127.824219 132.09375 C 126.816406 133.003906 125.804688 133.914062 125.011719 134.933594 C 124.132812 136.058594 123.726562 137.480469 122.085938 137.992188 C 121.355469 138.242188 120.71875 139.121094 120.292969 139.867188 C 119.53125 141.261719 119.027344 142.839844 118.277344 144.179688 C 117.003906 146.421875 115.472656 148.480469 114.144531 150.710938 C 110.171875 157.582031 105.910156 164.386719 104.179688 172.292969 C 103.25 176.378906 102.792969 180.519531 102.265625 184.707031 C 102.140625 185.464844 102.792969 186.292969 103.027344 187.078125 C 103.171875 187.476562 103.191406 187.90625 103.28125 188.292969 C 102.921875 188.265625 102.507812 188.226562 102.148438 188.199219 C 101.949219 188.273438 101.746094 188.347656 101.589844 188.492188 C 104.398438 190.691406 100.046875 194.617188 104.097656 196.449219 C 104.113281 198.640625 104.128906 200.832031 104.132812 203.078125 C 106.242188 203.652344 104.980469 205.59375 104.746094 206.8125 C 104.0625 211.140625 105.566406 214.96875 107.199219 218.765625 C 107.546875 219.578125 108.011719 220.421875 108.363281 221.234375 C 109.003906 222.605469 108.886719 224.582031 111.292969 224.679688 C 111.058594 223.890625 110.808594 223.164062 110.617188 222.449219 C 110.820312 222.375 111.089844 222.257812 111.289062 222.1875 C 111.667969 223.128906 112.0625 224.015625 112.558594 225.226562 L 114.28125 225.644531 C 114.238281 225.816406 114.253906 226.003906 114.210938 226.175781 C 113.425781 226.164062 112.578125 226.144531 111.734375 226.121094 C 111.640625 226.765625 111.601562 227.425781 111.503906 228.070312 C 111.691406 228.054688 111.890625 227.980469 112.132812 227.980469 C 114.023438 231.960938 115.03125 236.335938 118.175781 239.648438 C 121.308594 243.019531 124.042969 246.78125 126.832031 250.3125 C 127.835938 250.1875 128.523438 250.113281 129.335938 250.007812 C 128.269531 252.664062 128.863281 253.71875 131.589844 254.5 C 132.105469 254.625 132.609375 255.050781 132.941406 255.433594 C 133.679688 256.160156 134.214844 257.203125 135.0625 257.710938 C 137.207031 259.140625 139.507812 260.429688 141.753906 261.699219 C 142.125 261.914062 142.683594 261.863281 143.171875 261.863281 C 143.585938 261.902344 144.199219 261.625 144.386719 261.851562 C 147.636719 265.25 152.265625 265.949219 156.21875 267.9375 C 157.355469 268.515625 158.785156 268.621094 160.121094 268.882812 C 164.378906 269.855469 168.65625 271.011719 172.984375 271.695312 C 178.417969 272.585938 183.894531 273.0625 189.351562 273.59375 C 192.320312 273.886719 195.273438 274.238281 198.238281 274.289062 C 201.859375 274.375 205.582031 274.304688 209.230469 274.035156 C 211.09375 273.878906 212.902344 272.917969 214.777344 272.707031 C 219.929688 272.007812 224.746094 270.683594 229.234375 267.945312 C 232.101562 266.148438 235.183594 264.707031 238.046875 262.910156 C 241.113281 261.042969 244.089844 259.027344 246.96875 256.929688 C 247.921875 256.25 248.542969 255.1875 249.414062 254.363281 C 252.855469 251.1875 256.425781 248.226562 259.667969 244.882812 C 261.855469 242.617188 263.609375 239.882812 265.410156 237.222656 C 266.914062 235.035156 268.382812 232.71875 269.453125 230.304688 C 270.75 227.457031 271.546875 224.429688 272.667969 221.542969 C 273.332031 219.820312 274.207031 218.210938 275.023438 216.585938 C 276.082031 214.472656 277.484375 212.445312 278.085938 210.222656 C 279.070312 206.148438 279.554688 201.890625 280.441406 197.730469 Z M 260.628906 211.824219 C 260.570312 212.054688 260.414062 212.199219 260.359375 212.425781 C 258.789062 219.15625 255.183594 225.023438 251.875 230.90625 C 249.628906 234.917969 246.316406 238.550781 242.988281 241.753906 C 237.941406 246.542969 232.546875 251.007812 227.035156 255.203125 C 223.519531 257.933594 219.742188 260.484375 215.617188 262.21875 C 212.304688 263.601562 208.402344 264.175781 204.734375 264.257812 C 198.277344 264.335938 191.816406 263.925781 185.425781 263.46875 C 182.847656 263.332031 180.292969 262.589844 177.726562 262.152344 L 177.671875 262.382812 C 172.964844 261.242188 168.234375 260.214844 163.625 258.917969 C 161.976562 258.457031 160.4375 257.539062 158.929688 256.75 C 154.902344 254.558594 150.933594 252.382812 146.992188 250.089844 C 145.554688 249.257812 144.203125 248.320312 143.007812 247.242188 C 140.859375 245.324219 138.769531 243.421875 136.917969 241.273438 C 134.78125 238.8125 132.871094 236.160156 131.035156 233.46875 C 129.066406 230.5625 127.253906 227.511719 125.625 224.445312 C 122.285156 218.167969 118.890625 211.878906 117.707031 204.726562 C 117.632812 204.28125 117.5 203.824219 117.351562 203.425781 C 115.53125 199.402344 115.601562 195.105469 115.726562 190.820312 C 115.789062 189.316406 115.246094 187.789062 115.191406 186.257812 C 115.109375 184.355469 115.25 182.503906 115.28125 180.628906 C 115.402344 177.863281 115.457031 175.144531 115.691406 172.40625 C 115.78125 171.03125 116.246094 169.625 116.464844 168.21875 C 116.640625 166.988281 116.746094 165.796875 116.925781 164.566406 C 116.964844 164.148438 117.019531 163.675781 117.171875 163.289062 C 121.425781 153.75 126.328125 144.792969 134.554688 137.914062 C 139.054688 134.144531 142.886719 129.605469 147.425781 125.90625 C 150.542969 123.320312 154.324219 121.503906 157.761719 119.359375 C 158.902344 118.660156 160.054688 117.910156 161.269531 117.414062 C 165.921875 115.503906 170.753906 114.363281 175.660156 113.183594 C 185.722656 110.761719 195.648438 111.160156 205.53125 113.25 C 210.148438 114.246094 214.476562 116.691406 218.984375 118.390625 C 222.433594 119.714844 225.890625 120.976562 229.351562 122.238281 C 230.070312 122.535156 231.074219 122.65625 231.550781 123.199219 C 232.589844 124.421875 233.792969 124.46875 235.242188 124.515625 C 236.671875 124.621094 238.242188 125.425781 239.351562 126.363281 C 240.675781 127.410156 241.914062 128.320312 243.410156 129.167969 C 247.421875 131.414062 251.320312 134.121094 253.828125 138.3125 C 255.773438 141.578125 257.84375 144.8125 259.730469 148.0625 C 260.25 148.917969 260.144531 150.109375 260.511719 151.109375 C 261.285156 153.179688 262.199219 155.164062 262.976562 157.234375 C 263.457031 158.503906 263.753906 159.792969 264.050781 161.078125 C 264.332031 162.421875 264.46875 163.851562 264.566406 165.210938 C 264.945312 169.921875 265.679688 174.65625 265.515625 179.355469 C 265.328125 186.902344 264.824219 194.496094 263.976562 202.003906 C 263.445312 205.460938 261.777344 208.578125 260.628906 211.824219 Z M 244.730469 201.714844 C 243.996094 199.230469 243.332031 196.699219 242.339844 194.273438 C 242.035156 193.53125 240.984375 192.851562 240.09375 192.515625 C 236.691406 191.265625 233.203125 190.117188 229.757812 189.039062 C 226.757812 188.128906 223.703125 187.449219 220.746094 186.613281 C 218.234375 185.945312 215.78125 185.046875 213.3125 184.449219 C 208.738281 183.277344 204.164062 182.351562 199.585938 181.183594 C 195.855469 180.28125 192.109375 179.191406 188.394531 178.230469 C 184.5625 177.242188 180.621094 176.46875 176.789062 175.480469 C 173.703125 174.671875 170.703125 173.519531 167.605469 172.769531 C 163.875 171.867188 160.101562 170.890625 156.246094 170.503906 C 152.863281 170.171875 149.25 169.296875 145.972656 171.785156 C 146.882812 174.554688 146.882812 174.554688 144.355469 175.703125 C 143.8125 175.9375 143.070312 176.242188 142.902344 176.6875 C 141.820312 179.402344 139.375 181.726562 140.6875 185.082031 C 141.097656 186.152344 141.105469 187.371094 141.316406 188.515625 C 141.988281 192.261719 142.84375 195.992188 143.375 199.828125 C 144.023438 204.660156 146.390625 208.695312 149.207031 212.355469 C 152.214844 216.242188 155.863281 219.738281 159.496094 223.050781 C 162.929688 226.1875 166.84375 228.835938 170.429688 231.832031 C 173.960938 234.8125 178.066406 236.417969 182.453125 237.113281 C 187.257812 237.851562 192.1875 238.316406 197.085938 238.410156 C 200.578125 238.527344 204.085938 238.101562 207.546875 237.847656 C 211.757812 237.527344 215.0625 235.171875 219.066406 234.683594 C 221.886719 234.332031 224.710938 232.953125 227.335938 231.644531 C 229.347656 230.613281 230.9375 228.8125 232.832031 227.507812 C 236.351562 225.019531 239.28125 222.207031 240.726562 218 C 241.707031 215.199219 243.304688 212.609375 244.359375 209.765625 C 244.992188 208.160156 245.191406 206.324219 245.367188 204.605469 C 245.390625 203.757812 245.039062 202.703125 244.730469 201.714844 Z M 202.597656 222.917969 C 199.710938 223.554688 196.707031 224.164062 193.742188 224.113281 C 188.402344 224.097656 183.058594 223.835938 177.742188 223.214844 C 174.203125 222.785156 171.503906 220.125 168.640625 218.15625 C 166.394531 216.640625 164.445312 214.648438 162.371094 212.933594 C 162.441406 212.644531 162.453125 212.34375 162.523438 212.058594 C 166.339844 211.097656 170.300781 210.296875 174.042969 209.136719 C 178.375 207.816406 182.714844 208.199219 187.054688 208.585938 C 191.511719 208.996094 195.507812 210.8125 199.363281 213.203125 C 202.109375 214.902344 205.226562 216.082031 208.128906 217.636719 C 209.152344 218.1875 209.917969 219.042969 210.839844 219.75 L 210.773438 220.523438 C 208.027344 221.316406 205.359375 222.3125 202.597656 222.917969 Z M 230.773438 202.648438 C 230.011719 204.042969 229.421875 205.480469 228.828125 206.917969 C 227 211.210938 224.144531 214.46875 219.5625 216.578125 C 217.761719 214.988281 215.972656 213.097656 213.828125 211.667969 C 209.898438 209.074219 205.714844 206.785156 201.605469 204.453125 C 199.304688 203.167969 196.960938 201.808594 194.519531 200.855469 C 190.554688 199.40625 186.679688 198.105469 182.28125 197.707031 C 177.523438 197.285156 172.863281 196.703125 168.1875 197.695312 C 164.542969 198.453125 160.941406 199.527344 157.996094 201.910156 C 156.332031 203.269531 155.625 202.671875 155.238281 201 C 154.113281 196.109375 153.003906 191.164062 151.894531 186.21875 C 151.570312 184.800781 151.128906 183.359375 150.933594 181.914062 C 150.78125 180.785156 150.886719 179.59375 150.902344 178.019531 C 153.679688 179.601562 155.878906 181.046875 158.191406 182.03125 C 160.449219 183.003906 162.957031 183.429688 165.398438 184.140625 C 172.359375 186.253906 179.679688 186.871094 186.628906 189.527344 C 189.414062 190.566406 192.5625 191.875 195.441406 192.027344 C 200.65625 192.316406 205.40625 194.015625 210.382812 195.039062 C 212.578125 195.507812 214.800781 195.621094 216.980469 196.148438 C 219.734375 196.816406 222.359375 197.757812 225.101562 198.480469 C 226.25 198.757812 227.4375 198.863281 228.628906 198.972656 C 231.25 199.179688 231.976562 200.449219 230.773438 202.648438 Z M 205.929688 167.777344 C 206.214844 167.601562 206.414062 167.042969 206.65625 167.042969 C 209.820312 167.261719 211.757812 165.542969 213.542969 163.183594 C 214.253906 162.261719 215.78125 161.476562 216.925781 161.511719 C 220.347656 161.671875 225.675781 167.273438 226.085938 170.59375 C 226.40625 173.28125 226.738281 175.914062 227.445312 178.515625 C 227.652344 179.417969 228.894531 180.566406 229.78125 180.660156 C 233.941406 181.304688 237.34375 178.542969 238 174.328125 C 238.066406 173.796875 238.132812 173.269531 238.359375 172.835938 C 240.445312 168.238281 238.632812 161.421875 234.660156 158.273438 C 230.164062 154.753906 225.011719 152.960938 219.480469 152.46875 C 217.285156 152.242188 214.816406 153.164062 212.820312 154.136719 C 208.894531 156.042969 205.433594 158.789062 202.855469 162.414062 C 201.480469 164.332031 200.625 166.613281 199.464844 168.882812 C 202.164062 169.78125 204.105469 169.035156 205.929688 167.777344 Z M 152.332031 154.066406 C 155.449219 153.484375 157.785156 151.621094 159.28125 148.945312 C 160.425781 146.976562 162.664062 145.511719 164.8125 145.667969 C 166.902344 147.328125 169.160156 148.789062 170.949219 150.679688 C 172.207031 152.015625 173.109375 153.8125 173.648438 155.585938 C 174.222656 157.484375 174.023438 159.5625 174.28125 161.507812 C 174.601562 163.953125 177.847656 165.59375 179.742188 164.046875 C 181.179688 162.875 182.542969 163.265625 183.972656 163.128906 C 184.660156 163.050781 185.71875 162.941406 185.945312 162.511719 C 186.480469 161.304688 186.941406 159.898438 186.902344 158.550781 C 186.761719 154.628906 186.972656 150.488281 183.84375 147.363281 C 182.761719 146.308594 181.222656 145.632812 180.355469 144.453125 C 178.460938 141.746094 175.316406 140.921875 172.828125 139.164062 C 170.957031 137.863281 169.035156 137.519531 166.960938 137.5625 C 162.179688 137.742188 158.445312 140.359375 155.230469 143.347656 C 152.957031 145.46875 151.617188 148.488281 150.046875 151.203125 C 149.296875 152.542969 150.800781 154.363281 152.332031 154.066406 Z M 152.332031 154.066406 " fill-opacity="1" fill-rule="nonzero"/></g></g></g><g clip-path="url(#e88b81b3b3)"><g clip-path="url(#63594d2343)"><g clip-path="url(#5e16b8dfee)"><path stroke-linecap="butt" transform="matrix(0.573815, 0.138981, -0.138981, 0.573815, 125.296724, 84.097552)" fill="none" stroke-linejoin="miter" d="M 300.698287 125.19979 C 300.298798 107.501716 296.500248 90.497571 290.502741 73.998796 C 289.797785 72.100058 288.698222 70.399007 287.598659 68.697957 C 283.497619 62.502522 279.497706 56.303015 275.302926 50.198359 C 274.501377 48.996959 272.596887 48.300961 272.101832 47.100209 C 268.099052 37.797172 259.997865 32.20299 252.800527 25.899749 C 250.300504 23.700575 246.702073 22.700071 243.599068 21.103046 C 238.000726 18.197495 232.19808 15.797531 226.901854 12.39674 C 217.801552 6.499949 208.800326 1.096531 197.301524 4.296866 C 195.997132 4.701295 194.500571 4.396635 193.20059 4.200935 C 190.502815 3.799187 187.899428 3.000166 185.203365 2.802229 C 182.098123 2.601285 179.001023 2.602595 175.897955 3.197603 C 171.29939 3.998257 167.198844 -2.701054 162.502143 2.500598 C 162.298486 2.69969 161.599281 2.201906 161.097765 2.098728 C 155.000313 1.601389 148.798156 0.503118 142.702877 0.801731 C 135.702531 1.101716 128.702 2.300337 121.797723 3.502875 C 108.701573 5.701365 96.001711 9.001993 84.399329 15.597134 C 79.400914 18.400736 74.900407 21.798532 70.000913 24.898128 C 65.000293 28.001796 60.199567 31.200005 56.802539 36.202597 C 54.496424 39.497771 52.09953 42.699204 49.402417 45.701052 C 44.399529 51.296817 38.902804 56.399517 34.201693 62.201298 C 30.200465 67.098353 26.900153 72.697003 23.297109 78.00137 C 22.000982 79.90145 20.698424 81.803087 19.799571 83.797555 C 18.801303 85.999904 18.699466 88.502504 16.202772 89.999002 C 15.099985 90.701784 14.402276 92.402463 13.998848 93.80041 C 13.300953 96.399726 13.100657 99.198473 12.400248 101.703092 C 11.197952 105.901806 9.498058 109.901089 8.201066 114.102316 C 4.401024 126.99712 0.0986646 139.89786 0.402332 153.602712 C 0.50102 160.699466 1.399576 167.697791 2.201077 174.801315 C 2.297454 176.098629 3.701492 177.201755 4.400357 178.400795 C 4.797138 178.999059 5.000609 179.698603 5.302694 180.29938 C 4.700205 180.397654 4.00302 180.498441 3.400532 180.596714 C 3.102179 180.79832 2.797395 181.001483 2.59781 181.301702 C 8.098032 183.802144 2.499933 191.999585 9.898585 193.400311 C 10.798037 197.001472 11.69749 200.602633 12.599455 204.29849 C 16.300756 204.402717 14.997827 208.101627 15.097935 210.201324 C 15.698293 217.598636 19.700257 223.300697 23.901961 228.89992 C 24.798207 230.098807 25.899821 231.302412 26.802497 232.49974 C 28.40373 234.501349 28.998892 237.801797 32.998885 237.003163 C 32.298463 235.797693 31.597238 234.701336 30.99714 233.600909 C 31.301923 233.397746 31.698889 233.097373 31.9988 232.902198 C 32.997884 234.300824 34.000885 235.603197 35.300341 237.398789 L 38.302745 237.399993 C 38.30054 237.700057 38.401019 238.002481 38.398814 238.302546 C 37.101654 238.596303 35.698494 238.902119 34.300208 239.199947 C 34.402861 240.298323 34.601767 241.400616 34.69799 242.50055 C 35.000414 242.400071 35.298767 242.198465 35.697445 242.101903 C 40.396748 247.900558 43.800109 254.700656 50.29721 258.89979 C 56.798381 263.20005 62.799409 268.302199 68.798571 273.003156 C 70.401316 272.397122 71.503455 272.000835 72.798904 271.503267 C 72.102503 276.301046 73.500419 277.800491 78.30025 277.999446 C 79.198886 277.999631 80.198155 278.499621 80.89736 278.997406 C 82.402371 279.89908 83.69916 281.402596 85.297001 281.900566 C 89.397256 283.399009 93.698654 284.603664 97.902241 285.797972 C 98.598778 286.003679 99.498062 285.69737 100.301848 285.502688 C 100.999033 285.401901 101.898009 284.700831 102.296995 284.999029 C 109.001977 289.297578 116.900651 288.603018 124.200845 290.299891 C 126.302561 290.798355 128.698097 290.401945 131.001604 290.300125 C 138.398423 290.203643 145.900592 290.401596 153.297904 289.801239 C 162.597532 289.100927 171.802803 287.701873 180.997727 286.40063 C 186.001554 285.699238 191.003021 285.100529 195.903856 284.002016 C 201.898995 282.699723 207.999024 281.099726 213.897448 279.201375 C 216.902396 278.201258 219.496485 275.898307 222.498921 274.803494 C 230.701685 271.598193 238.102251 267.497986 244.398876 261.200842 C 248.402278 257.099739 252.901074 253.498133 256.898046 249.398589 C 261.201358 245.102311 265.297591 240.597504 269.20036 235.996597 C 270.498353 234.497709 271.097141 232.501036 272.202473 230.796934 C 276.601346 224.196995 281.298079 217.899325 285.302037 211.102314 C 287.999675 206.500574 289.796656 201.300077 291.700393 196.203066 C 293.30388 192.002487 294.798098 187.603724 295.59749 183.203065 C 296.596962 177.998312 296.701715 172.697119 297.396249 167.498149 C 297.802561 164.397625 298.601275 161.399478 299.297304 158.398971 C 300.19733 154.498116 301.697485 150.601672 301.801558 146.702991 C 301.797567 139.603724 300.897299 132.401587 300.698287 125.19979 Z M 273.703163 156.299666 C 273.698599 156.702414 273.499013 157.002633 273.499321 157.397394 C 273.597837 169.102874 270.001977 180.198693 266.901049 191.201867 C 264.803138 198.701307 260.798686 206.002194 256.597193 212.601979 C 250.1987 222.497739 243.098643 231.998399 235.698213 241.102093 C 230.999615 246.998571 225.798545 252.703605 219.699671 257.203322 C 214.798126 260.800364 208.603216 263.301512 202.597883 264.898996 C 191.999769 267.602071 181.200542 269.502918 170.498371 271.298568 C 166.199871 272.101427 161.698548 271.898246 157.299415 272.201301 L 157.30128 272.602492 C 149.098009 272.601579 140.901322 272.796489 132.796509 272.499429 C 129.899149 272.3979 126.999614 271.500419 124.202918 270.802678 C 116.699562 268.801021 109.298889 266.801724 101.896505 264.598615 C 99.198422 263.802107 96.599755 262.797717 94.20223 261.499539 C 89.900863 259.198867 85.70218 256.900555 81.797625 254.10213 C 77.299063 250.902976 73.097142 247.298406 69.001823 243.599941 C 64.602213 239.600764 60.402189 235.301369 56.498159 230.903052 C 48.497438 221.901203 40.402019 212.901868 35.601946 201.599922 C 35.302221 200.896461 34.901369 200.197071 34.498158 199.600365 C 29.897468 193.702943 28.300015 186.601593 26.797259 179.49773 C 26.300524 176.997151 24.79775 174.699395 24.097204 172.200527 C 23.203689 169.101684 22.696946 165.99766 22.000811 162.898662 C 21.097473 158.297738 20.10351 153.800455 19.397553 149.199377 C 18.997226 146.900094 19.201747 144.399854 19.00116 141.997734 C 18.799925 139.902108 18.49852 137.898819 18.303716 135.801636 C 18.201371 135.098021 18.102943 134.298152 18.199536 133.600813 C 21.398819 116.201987 25.897589 99.502737 36.697098 84.899006 C 42.601846 76.899594 47.100197 67.899739 53.097282 60.000498 C 57.197616 54.500801 62.697918 50.003103 67.501529 45.102317 C 69.100388 43.49652 70.698292 41.802456 72.500315 40.501442 C 79.397191 35.502105 86.89668 31.697892 94.502769 27.799785 C 110.101566 19.801008 126.599785 16.49941 143.701647 15.999257 C 151.699396 15.798071 159.799119 18.097773 167.897162 19.097647 C 174.103081 19.902283 180.296942 20.600919 186.497234 21.297999 C 187.798773 21.500129 189.499637 21.299203 190.500618 22.003003 C 192.698557 23.6014 194.697775 23.198868 197.102101 22.698217 C 199.497637 22.301807 202.403447 23.00035 204.603437 24.101302 C 207.200702 25.296642 209.601989 26.301186 212.402756 27.100054 C 219.902196 29.197965 227.398937 32.099815 233.198328 37.999628 C 237.702641 42.599736 242.400264 47.098563 246.801893 51.696312 C 247.998204 52.897404 248.299609 54.900692 249.302764 56.400445 C 251.401411 59.500121 253.697284 62.402263 255.802361 65.500381 C 257.099458 67.398658 258.10212 69.402286 259.103224 71.399484 C 260.101968 73.499366 260.897056 75.79834 261.599807 77.997143 C 264.101833 85.600996 267.198359 93.101702 268.801903 100.90275 C 271.502248 113.400821 273.70043 126.10221 275.298482 138.799188 C 275.802309 144.701805 274.299424 150.498206 273.703163 156.299666 Z M 243.501209 145.996917 C 241.301775 142.200056 239.199397 138.297997 236.598926 134.700382 C 235.801447 133.600109 233.800703 132.900194 232.200657 132.702289 C 226.101492 132.001139 219.901355 131.50144 213.799986 131.100354 C 208.498639 130.798221 203.199158 130.89728 197.998136 130.70019 C 193.597138 130.602053 189.200703 130.101168 184.898472 130.101644 C 176.901371 129.996336 169.002389 130.296135 161.000414 130.198814 C 154.499719 130.200786 147.898545 129.900333 141.400209 129.79962 C 134.698062 129.700619 127.901527 129.998892 121.199381 129.899891 C 115.797062 129.79921 110.399153 129.098399 105.000905 129.098844 C 98.500209 129.100815 91.899189 128.997743 85.398309 129.898351 C 79.697297 130.700531 73.400412 130.700791 68.997499 136.103586 C 71.59999 140.299773 71.59999 140.299773 67.897486 143.197949 C 67.097123 143.800252 65.99685 144.597731 65.897898 145.397754 C 65.199138 150.298217 62.100463 155.099203 65.598891 160.099515 C 66.700814 161.697881 67.1996 163.701016 68.003169 165.500987 C 70.602775 171.39975 73.498376 177.199592 75.902313 183.30232 C 78.89631 190.998047 84.401913 196.696716 90.497483 201.598971 C 96.998469 206.797868 104.398277 211.098313 111.699164 215.102765 C 118.60202 218.897284 126.10112 221.696451 133.19869 225.198739 C 140.200006 228.69711 147.59835 229.703075 155.096788 229.098646 C 163.300399 228.398303 171.600758 227.198002 179.701716 225.399282 C 185.497116 224.199828 191.101751 222.100334 196.69775 220.302462 C 203.501888 218.096245 208.002766 212.901177 214.399129 210.501002 C 218.901625 208.797795 223.000941 205.401865 226.800347 202.201111 C 229.700777 199.701427 231.599918 196.103181 234.198417 193.200101 C 239.000008 187.700743 242.701357 181.902847 243.403186 174.401171 C 243.900494 169.399735 245.49789 164.499457 246.100242 159.397696 C 246.501835 156.502541 246.097777 153.400876 245.701861 150.501464 C 245.402475 149.096748 244.403237 147.500741 243.501209 145.996917 Z M 182.597992 197.6992 C 178.099875 199.898294 173.397948 202.0991 168.497113 203.197613 C 159.700682 205.30093 150.7997 207.000697 141.800445 208.097975 C 135.803286 208.801695 130.299332 205.49887 124.800976 203.399619 C 120.499269 201.800203 116.496255 199.297926 112.398051 197.302037 C 112.398545 196.798162 112.297912 196.298358 112.299963 195.800913 C 118.19922 192.697431 124.400253 189.799965 130.097904 186.39813 C 136.702672 182.497477 143.999351 181.397315 151.297587 180.303584 C 158.798077 179.20171 166.100476 180.598519 173.40033 182.996648 C 178.598313 184.698933 184.200032 185.398033 189.597602 186.800099 C 191.501938 187.298717 193.103356 188.401689 194.902803 189.198012 L 195.101863 190.497685 C 190.897535 192.897923 186.9028 195.601386 182.597992 197.6992 Z M 220.898026 153.098535 C 220.200131 155.697851 219.8023 158.299371 219.398039 160.90245 C 218.100306 168.698223 214.698682 175.19958 207.996981 180.498827 C 204.398735 178.599686 200.699857 176.200741 196.599602 174.702297 C 189.096585 171.999385 181.29708 169.899269 173.60262 167.698828 C 169.302779 166.500604 164.902613 165.197336 160.503666 164.601754 C 153.39911 163.796932 146.501634 163.20064 139.102271 164.298443 C 131.101977 165.50095 123.198584 166.400878 115.897124 169.898442 C 110.199813 172.599021 104.699388 175.803322 100.800998 180.900116 C 98.60369 183.801331 97.201518 183.099396 95.89833 180.501421 C 92.096476 172.899249 88.298539 165.200823 84.500602 157.502396 C 83.401533 155.297471 82.100211 153.100687 81.202439 150.799354 C 80.501554 149.001742 80.200148 146.998453 79.598216 144.400818 C 84.800918 145.897735 88.997427 147.400095 93.196635 148.098515 C 97.301146 148.799449 101.599153 148.500465 105.901538 148.697369 C 118.202891 149.400773 130.499325 147.498092 142.997873 149.099978 C 147.99695 149.69997 153.701508 150.598809 158.50137 149.701747 C 167.201054 148.098389 175.697774 149.001701 184.298012 148.702241 C 188.098727 148.598587 191.802727 147.898874 195.601083 147.897904 C 200.400759 147.899479 205.097258 148.40257 209.899448 148.498841 C 211.900531 148.4975 213.89739 148.197652 215.902236 147.902677 C 220.299503 147.198431 222.001708 148.998588 220.898026 153.098535 Z M 166.098021 105.600767 C 166.497347 105.19771 166.602576 104.198749 167.001254 104.102187 C 172.297003 103.200746 174.801146 99.598924 176.799085 95.003275 C 177.601839 93.20227 179.803033 91.300819 181.701124 90.902358 C 187.39791 89.801671 198.402209 96.898336 200.401224 102.200547 C 202.000035 106.496873 203.596332 110.698503 205.797478 114.699174 C 206.498055 116.102026 209.000777 117.49726 210.497831 117.298045 C 217.603066 116.700355 222.102726 110.797601 221.502523 103.597669 C 221.400024 102.696674 221.299083 101.802108 221.499162 100.998014 C 223.099813 92.597887 217.398405 82.099695 209.603496 78.500814 C 200.798971 74.499754 191.602552 73.602533 182.301028 74.99767 C 178.596874 75.500002 174.900492 78.00186 172.002421 80.39886 C 166.30002 85.10208 161.697676 91.002474 158.899003 97.997699 C 157.400251 101.703193 156.901571 105.799563 155.896656 109.998123 C 160.698198 110.400889 163.596577 108.39865 166.098021 105.600767 Z M 72.4014 104.400273 C 77.300708 102.199313 80.403114 98.200709 81.799059 93.199458 C 82.898176 89.50226 85.998686 86.198482 89.597641 85.599095 C 93.699762 87.498729 97.998955 89.003449 101.697834 91.402394 C 104.301035 93.100052 106.502859 95.698212 108.097323 98.402634 C 109.799497 101.298807 110.300117 104.79915 111.500128 107.898641 C 113.002377 111.796289 119.000075 113.202766 121.502013 109.901008 C 123.401122 107.398779 125.801038 107.498257 128.100012 106.703169 C 129.200593 106.300452 130.899592 105.698334 131.101229 104.90067 C 131.500925 102.70034 131.699016 100.201658 131.097392 97.998784 C 129.302219 91.598844 127.998554 84.698638 121.601932 80.801928 C 119.40023 79.497166 116.597258 78.998362 114.699384 77.40217 C 110.50138 73.701346 104.996377 73.598306 100.19943 71.696774 C 96.600691 70.301509 93.299934 70.50191 89.902584 71.399651 C 82.103556 73.601766 76.999696 79.398983 72.899021 85.599936 C 70.002292 89.99802 69.000614 95.502837 67.498069 100.597983 C 66.79766 103.102602 69.999094 105.499496 72.4014 104.400273 Z M 72.4014 104.400273 " stroke="#f9ac85" stroke-width="1" stroke-opacity="1" stroke-miterlimit="10"/></g></g></g></svg>